<svg width="273" height="239" viewBox="0 0 273 239" fill="none" xmlns="http://www.w3.org/2000/svg">
<path d="M270.882 231.269C270.882 231.269 247.787 237.302 219.295 237.302C190.805 237.302 167.708 231.269 167.708 231.269C167.708 231.269 190.805 225.237 219.295 225.237C247.787 225.237 270.882 231.269 270.882 231.269Z" fill="#CBB59B"/>
<path d="M252.082 65.8286L263.351 66.5188C263.351 66.5188 268.382 41.3628 265.331 34.1516C264.873 33.0617 264.228 32.3841 263.351 32.2617C259.907 31.7846 257.017 40.7374 255.03 49.5163C253.16 57.7532 252.082 65.8286 252.082 65.8286Z" fill="#FAB663"/>
<path d="M258.416 42.387C260.29 41.0729 262.466 40.1917 264.727 39.8319C262.947 41.5803 260.907 42.5094 258.416 42.387Z" fill="#F7923D"/>
<path d="M257.742 48.7973C259.616 47.4832 261.792 46.602 264.053 46.2422C262.273 47.9898 260.233 48.919 257.742 48.7973Z" fill="#F7923D"/>
<path d="M257.01 55.4974C258.885 54.1826 261.062 53.3021 263.322 52.9415C261.542 54.6899 259.502 55.6191 257.01 55.4974Z" fill="#F7923D"/>
<path d="M255.03 49.5163C255.32 48.5488 255.592 47.5747 255.869 46.6072C256.701 43.7431 257.643 40.8466 259.377 38.4212C260.835 36.3963 262.938 34.7261 265.331 34.1516C264.873 33.0617 264.228 32.3841 263.351 32.2616C259.907 31.7845 257.017 40.7374 255.03 49.5163Z" fill="#F7923D"/>
<path d="M246.93 101.347L251.718 58.3541L266.615 59.604L262.076 101.347H246.93Z" fill="#C07E53"/>
<path d="M271.022 91.5051C271.022 94.078 264.343 95.0499 259.776 94.9503C255.388 95.0447 249.068 94.1524 248.569 91.809C248.539 91.7094 248.529 91.6098 248.529 91.5051C248.529 89.3313 251.021 77.0681 252.193 71.4247C252.558 69.6948 252.792 68.5827 252.792 68.5827H266.756C266.756 68.5827 266.99 69.6948 267.354 71.4247C268.525 77.0681 271.022 89.3313 271.022 91.5051Z" fill="#F04242"/>
<path d="M267.354 71.4247C266.99 69.6948 266.756 68.5827 266.756 68.5827H264.273H252.792C252.792 68.5827 252.558 69.6948 252.193 71.4247H264.917C266.318 77.6883 268.348 87.338 267.947 88.8379C267.384 90.9867 257.613 94.7453 248.569 91.809C249.068 94.1524 255.389 95.0447 259.776 94.9503C264.343 95.0499 271.022 94.078 271.022 91.5051C271.022 89.3313 268.525 77.0681 267.354 71.4247Z" fill="#EF2D2E"/>
<path d="M267.948 69.7376H251.6V66.0063H267.948V69.7376Z" fill="#F04242"/>
<path d="M264.746 83.5087H252.307V77.9413H264.746V83.5087Z" fill="white"/>
<path d="M180.862 71.2714L192.101 76.4812L197.183 64.8832L208.561 69.4219C208.561 69.4219 200.854 90.7419 196.723 91.4786C193.755 92.0081 178.949 80.8695 178.949 80.8695L180.862 71.2714Z" fill="#F68672"/>
<path d="M166.275 74.1745C166.463 74.4511 166.696 74.6797 166.96 74.878L166.968 74.8825C167.581 75.3603 168.365 75.6567 169.114 75.9237C169.952 76.2231 170.791 76.563 171.624 76.9103C172.327 77.1994 173.021 77.4899 173.717 77.7613C174.125 77.928 174.527 78.0762 174.936 78.2222L177.225 79.8489C177.225 79.8489 177.855 80.2279 178.949 80.8695L180.57 78.7959L180.562 78.7915L182.503 76.3086L183.578 74.9304L181.553 73.5485L179.727 72.3059C179.719 69.2973 179.323 66.1677 178.149 63.398C177.958 62.9416 177.731 62.4969 177.518 62.0545L177.514 62.0419C177.191 61.3996 176.888 60.7566 176.679 60.0716C176.295 58.79 176.309 57.4309 176.158 56.0969C176.133 55.8897 176.1 55.6788 176.061 55.4701C176.004 55.1184 175.901 54.7489 175.63 54.5255L175.588 54.499C175.234 54.2475 174.714 54.3242 174.36 54.583L174.212 54.7106C173.934 54.979 173.754 55.344 173.599 55.7017L173.55 55.8447C172.779 57.7849 172.677 59.9765 173.248 61.977C173.321 62.2351 173.41 62.5161 173.327 62.7639C173.25 62.9888 173.047 63.1532 172.85 63.2904C172.041 63.8331 171.077 64.0964 170.095 64.1708C169.61 64.2092 169.11 64.1989 168.615 64.1605L168.601 64.1583C167.995 64.1074 167.353 64.0285 166.82 64.2962C166.394 64.5182 166.13 64.9164 165.961 65.3794L165.931 65.4554C165.804 65.8175 165.74 66.2135 165.695 66.5829C165.67 66.7783 165.651 66.9723 165.641 67.1765C165.494 68.7126 165.487 70.2641 165.623 71.8045C165.69 72.6348 165.805 73.491 166.275 74.1745Z" fill="#F36269"/>
<path d="M175.627 54.524C175.902 54.7467 176.001 55.1177 176.064 55.4709C176.1 55.6788 176.131 55.8919 176.158 56.0999C176.309 57.4302 176.297 58.7877 176.679 60.0686C176.885 60.7566 177.191 61.4004 177.517 62.0434V62.0523C177.733 62.4962 177.958 62.9401 178.152 63.3973C179.323 66.1685 179.719 69.2958 179.726 72.3045L183.58 74.9319L182.504 76.3093L180.568 78.7988L178.949 80.8695L176.261 76.3337C176.688 73.4607 177.654 67.8122 177.132 64.232C177.038 63.5942 176.899 63.0286 176.701 62.5485C176.467 61.9962 176.21 61.4387 175.967 60.8776C175.494 59.7862 175.093 58.6764 175.124 57.5002L175.128 57.3144C175.134 56.6677 175.072 55.8897 174.574 55.6803C174.511 55.653 174.447 55.6353 174.376 55.6257C174.091 55.5933 173.828 55.7555 173.548 55.8455L173.597 55.7054C173.752 55.344 173.934 54.982 174.214 54.7113L174.36 54.5852C174.714 54.3235 175.234 54.2475 175.586 54.5019L175.627 54.524Z" fill="#F68672"/>
<path d="M172.028 70.239C171.997 71.8539 172.43 73.4585 173.14 74.909C172.104 73.7137 171.284 72.2787 171.076 70.7109C170.87 69.1425 171.353 67.4346 172.553 66.4037C172.77 66.2172 173.044 65.9863 173.301 65.92C173.312 66.4981 172.629 67.2975 172.433 67.8763C172.177 68.6366 172.044 69.4374 172.028 70.239Z" fill="#F14568"/>
<path d="M181.594 72.9512C181.536 75.4082 181.472 77.633 181.426 79.11C181.393 80.135 180.556 80.9477 179.53 80.9477H169.579C168.553 80.9477 167.715 80.135 167.683 79.11C167.637 77.633 167.573 75.4082 167.515 72.9512C167.444 69.958 167.392 66.6309 167.406 63.9091C167.425 60.9875 167.515 58.7752 167.741 58.4146C168.502 57.234 171.095 56.0542 171.095 56.0542L171.708 52.6429H177.396L178.014 56.0542C178.014 56.0542 180.607 57.234 181.368 58.4146C181.594 58.7752 181.684 60.9875 181.697 63.9091C181.716 66.6309 181.665 69.958 181.594 72.9512Z" fill="#D1F0FC"/>
<path d="M177.548 53.4718H171.56C171.18 53.4718 170.871 53.1628 170.871 52.7816V52.3929C170.871 52.0124 171.18 51.7035 171.56 51.7035H177.548C177.928 51.7035 178.237 52.0124 178.237 52.3929V52.7816C178.237 53.1628 177.928 53.4718 177.548 53.4718Z" fill="#363950"/>
<path d="M181.594 72.9512H167.515C167.444 69.958 167.392 66.6308 167.406 63.9091H181.697C181.716 66.6308 181.665 69.958 181.594 72.9512Z" fill="white"/>
<path d="M166.151 74.7143C168.595 75.3942 171.536 74.3707 171.536 74.3707C171.713 73.8471 171.801 73.2358 171.817 72.581C171.831 72.306 171.826 72.0228 171.812 71.7323C171.78 71.0907 171.705 70.4197 171.587 69.7457C171.54 69.4507 171.485 69.1535 171.425 68.8593C171.261 68.0762 171.068 67.3063 170.863 66.594C170.781 66.2865 170.692 65.9922 170.607 65.7098C170.37 64.9459 170.143 64.2874 169.966 63.797C169.761 63.2284 169.624 62.8878 169.624 62.8878C167.298 62.9438 164.156 64.8618 164.156 64.8618C163.957 65.7275 163.917 66.6508 163.988 67.5666C164.256 71.1674 166.151 74.7143 166.151 74.7143Z" fill="#F68672"/>
<path d="M167.112 66.9509C167.112 66.9509 167.438 66.9671 167.919 66.9583C168.403 66.948 169.038 66.9266 169.717 66.8248C170.131 66.7636 170.518 66.6803 170.863 66.594C170.781 66.2865 170.692 65.9923 170.607 65.7098C170.284 65.6796 169.927 65.6826 169.557 65.7349C168.804 65.8492 168.171 66.1582 167.751 66.4362C167.332 66.7142 167.112 66.9509 167.112 66.9509Z" fill="#D03B58"/>
<path d="M168.023 69.9403C168.023 69.9403 168.334 69.9831 168.791 70.0045C169.251 70.0236 169.858 70.0332 170.51 69.9521C170.896 69.9042 171.261 69.8245 171.587 69.7456C171.54 69.4507 171.485 69.1535 171.425 68.8593C171.105 68.8209 170.747 68.8091 170.37 68.8578C169.663 68.9478 169.056 69.2228 168.651 69.4713C168.243 69.7243 168.023 69.9403 168.023 69.9403Z" fill="#D03B58"/>
<path d="M168.001 72.828C168.001 72.828 168.325 72.876 168.811 72.9003C169.299 72.9209 169.947 72.9254 170.643 72.8295C171.067 72.7705 171.466 72.6791 171.817 72.581C171.831 72.306 171.826 72.0228 171.812 71.7323C171.423 71.6836 170.969 71.6718 170.491 71.7389C169.748 71.8421 169.114 72.1164 168.68 72.3649C168.243 72.6134 168.001 72.828 168.001 72.828Z" fill="#D03B58"/>
<path d="M163.988 67.5666C164.374 66.886 164.823 66.2504 165.425 65.7592C165.974 65.3079 166.626 65.0019 167.276 64.7217C168.021 64.4002 168.805 64.0256 169.598 63.8383C169.701 63.8117 169.828 63.8044 169.966 63.797C169.761 63.2284 169.624 62.8878 169.624 62.8878C167.298 62.9438 164.156 64.8618 164.156 64.8618C163.957 65.7275 163.917 66.6508 163.988 67.5666Z" fill="#F9AA7F"/>
<path d="M220.917 223.737L219.211 215.612L220.006 200.043L208.038 200.504L206.925 217.713L210.486 224.138L219.741 225.953L220.917 223.737Z" fill="#F36269"/>
<path d="M187.397 228.279L221.428 227.882C221.359 227.248 221.179 225.663 220.917 223.737C218.575 223.887 215.484 223.819 213.819 222.716C211.747 221.345 210.463 217.124 209.895 214.791L204.291 214.715C203.757 215.984 202.376 218.976 200.725 220.386C198.598 222.21 190.628 225.552 188.462 226.616C187.721 226.981 187.472 227.678 187.397 228.279Z" fill="#282A3E"/>
<path d="M187.431 231.269L187.397 228.276L221.427 227.883L221.466 231.269H187.431Z" fill="#DCDDDA"/>
<path d="M204.11 203.476C205.259 203.662 207.208 203.687 209.52 203.625C212.623 203.53 216.383 203.273 219.727 202.997C220.731 202.919 221.704 202.836 222.605 202.752C223.558 202.67 224.428 202.589 225.198 202.513C227.159 202.328 228.426 202.195 228.426 202.195L225.574 158.48C225.574 158.48 234.49 129.235 236.45 120.654C236.023 117.623 235.237 113.937 234.384 110.388L228.486 111.503L206.925 108.485C206.119 121.794 206.726 153.619 206.501 155.607C206.469 155.9 206.45 156.295 206.445 156.79L206.441 156.829L204.11 203.476Z" fill="#A3889F"/>
<path d="M209.71 166.416C211.396 168.15 213.668 167.396 214.896 164.924C215.553 163.6 215.962 162.087 215.868 160.55C215.774 159.012 215.135 157.455 214.008 156.481C212.882 155.509 211.255 155.221 210.048 155.946C208.62 156.804 208.087 158.761 207.998 160.574C207.925 162.054 208.078 163.598 208.719 164.94C209.012 165.552 209.347 166.042 209.71 166.416Z" fill="#B99EB2"/>
<path d="M245.641 222.714L243.213 214.776L242.606 199.198L230.73 200.73L231.165 217.97L235.288 224.049L244.668 225.028L245.641 222.714Z" fill="#F68672"/>
<path d="M212.665 230.247L246.522 226.797C246.397 226.172 246.074 224.609 245.641 222.714C243.322 223.073 240.237 223.283 238.48 222.334C236.294 221.155 234.636 217.068 233.86 214.794L228.273 215.221C227.854 216.533 226.748 219.637 225.231 221.189C223.274 223.197 215.637 227.242 213.575 228.495C212.87 228.924 212.684 229.641 212.665 230.247Z" fill="#363950"/>
<path d="M212.966 233.222L212.663 230.244L246.521 226.797L246.838 229.915L212.966 233.222Z" fill="white"/>
<path d="M223.97 203.422C225.131 203.494 227.074 203.33 229.369 203.044C232.448 202.648 236.164 202.026 239.467 201.427C240.458 201.252 241.418 201.075 242.308 200.904C243.248 200.73 244.106 200.564 244.865 200.414C246.798 200.039 248.046 199.783 248.046 199.783L240.96 156.553C240.96 156.553 246.993 126.579 248.11 117.849C247.391 114.874 246.251 111.282 245.056 107.832L239.293 109.515L219.295 109.236C219.786 122.56 221.729 153.545 221.698 155.546C221.696 155.841 221.715 156.236 221.757 156.73V156.768L223.97 203.422Z" fill="#B99EB2"/>
<path d="M236.214 157.902L244.865 200.414C246.799 200.039 248.046 199.783 248.046 199.783L240.96 156.553C240.96 156.553 246.993 126.579 248.11 117.849C247.391 114.874 246.251 111.282 245.056 107.832L239.293 109.515C240.126 114.005 241.668 122.549 241.502 124.046C241.319 125.668 238.064 146.248 236.756 154.509C236.419 156.604 236.214 157.902 236.214 157.902Z" fill="#A3889F"/>
<path d="M225.942 165.992C227.788 167.554 229.977 166.583 230.958 164.004C231.484 162.622 231.745 161.077 231.502 159.556C231.259 158.035 230.471 156.545 229.256 155.687C228.039 154.829 226.392 154.7 225.263 155.539C223.923 156.532 223.583 158.533 223.671 160.345C223.742 161.825 224.044 163.347 224.812 164.62C225.163 165.201 225.544 165.655 225.942 165.992Z" fill="#D0B6C7"/>
<path d="M202.242 43.4039C202.59 46.4575 205.202 48.7332 207.825 50.3363C218.824 57.0858 233.478 57.3808 244.738 51.0789C247.608 49.4699 250.338 47.383 251.894 44.4828C252.065 44.1642 252.218 43.8346 252.348 43.4983C253.456 40.7574 253.361 37.4626 251.54 35.1693C250.372 33.6959 248.657 32.7874 247.202 31.6031C245.746 30.424 244.443 28.7088 244.673 26.8461C244.956 24.4879 247.544 22.8899 247.78 20.5265C247.956 18.7405 246.713 17.1197 245.333 15.9701C242.12 13.3051 241.018 9.95132 238.56 6.82691C235.777 3.29029 230.991 0.950493 226.629 0.248478C223.015 -0.34145 219.184 0.0951157 215.954 1.81623C212.717 3.53809 210.153 6.60276 209.369 10.1814C208.797 12.7926 209.139 15.6574 207.895 18.0215C207.135 19.4654 205.832 20.6032 205.242 22.1238C204.9 23.002 204.818 23.9157 204.877 24.8411C205.019 27.0873 205.95 29.4337 205.79 31.7204C205.508 35.8293 201.77 39.3128 202.242 43.4039Z" fill="#FABF75"/>
<path d="M205.804 42.6517C205.804 42.6517 203.38 43.4754 202.201 46.001C201.022 48.5274 191.027 66.5379 191.027 66.5379L207.83 72.4313L205.804 42.6517Z" fill="#88C036"/>
<path d="M190.148 68.0386L192.016 63.463L208.489 70.0525L207.138 74.4415L190.148 68.0386Z" fill="#61AE32"/>
<path d="M249.481 114.633C249.481 114.633 218.738 117.464 205.804 114.821L207.83 79.0245L205.804 42.6517L211.46 41.0066L219.305 38.7206L223.206 39.2995L229.466 37.4508C229.466 37.4508 232.233 38.2708 235.696 39.6018C239.548 41.0803 244.256 43.1878 246.93 45.4863L249.481 114.633Z" fill="#88C036"/>
<path d="M235.695 39.6003C233.277 42.0058 227.692 46.9848 222.577 47.6492C217.36 48.3195 213.129 43.3346 211.459 41.0058L214.412 40.1482L219.307 38.7228L223.203 39.2973L229.465 37.4523C229.465 37.4523 230.677 37.8136 232.496 38.4389C233.432 38.7619 234.521 39.149 235.695 39.6003Z" fill="#F68672"/>
<path d="M235.695 39.6003C233.277 42.0058 227.692 46.9848 222.577 47.6492C217.36 48.3195 213.129 43.3346 211.459 41.0058L214.412 40.1482C215.819 42.154 219.101 46.3137 222.126 46.1397C225.267 45.959 230.445 40.677 232.496 38.4389C233.432 38.7619 234.521 39.149 235.695 39.6003Z" fill="#61AE32"/>
<path d="M231.419 38.0739C231.419 38.0739 223.236 41.8561 222.088 41.4299C220.94 41.0096 219.306 38.7236 219.306 38.7236C219.545 38.4294 221.211 37.279 221.126 36.3853C220.932 34.3235 220.178 31.4498 220.178 31.4498L227.092 29.0687C227.092 29.0687 227.378 31.0472 227.778 33.1414C228.181 35.2622 230.981 37.7495 231.419 38.0739Z" fill="#F68672"/>
<path d="M227.776 33.1384C225.876 34.5572 223.541 36.237 222.778 36.4973C222.154 36.7075 221.573 36.5814 221.129 36.3853C220.931 34.322 220.176 31.452 220.176 31.452L227.091 29.0701C227.091 29.0701 227.38 31.0508 227.776 33.1384Z" fill="#F36269"/>
<path d="M230.903 9.67992C227.109 5.33879 220.751 4.03581 215.758 6.91834C214.61 7.58054 213.693 8.33341 213.281 9.16226C211.631 12.4754 209.28 24.6685 211.808 30.5287C214.335 36.3897 218.313 35.5866 219.73 35.1737C221.147 34.7615 227.804 31.9851 229.343 29.8142C230.883 27.6425 234.182 16.4368 233.447 13.5167C233.201 12.5418 232.169 11.1297 230.903 9.67992Z" fill="#F9AA7F"/>
<path d="M231.356 8.80167C227.563 4.4598 221.205 3.15606 216.212 6.03934C215.064 6.70227 214.147 7.4544 213.735 8.28325C212.086 11.5972 209.735 23.7895 212.262 29.6497C214.79 35.5106 218.767 34.7076 220.184 34.2947C221.601 33.8824 228.258 31.1061 229.798 28.9352C231.337 26.7635 234.636 15.5578 233.901 12.6384C233.656 11.6628 232.623 10.2507 231.356 8.80167Z" fill="#F68672"/>
<path d="M229.99 23.7511C230.346 23.5823 232.144 21.2395 233.397 22.6731C234.649 24.1058 234.977 26.4678 233.786 27.7877C232.697 28.9919 231.183 30.2898 229.343 29.8141L229.99 23.7511Z" fill="#F68672"/>
<path d="M233.35 24.4753C233.422 24.7909 233.37 25.1176 233.268 25.4266C232.836 26.7407 231.585 27.7303 230.387 28.6483C230.752 28.0142 230.893 27.2937 230.83 26.5887C230.808 26.3432 230.762 26.0991 230.763 25.8543C230.767 24.8647 232.927 22.6104 233.35 24.4753Z" fill="#F36269"/>
<path d="M229.786 29.0163L229.853 28.9765C229.897 28.9492 229.967 28.9138 230.047 28.8577C230.207 28.7471 230.429 28.5694 230.64 28.3039C230.848 28.0385 231.04 27.6845 231.134 27.2627C231.22 26.8424 231.21 26.3506 231.004 25.8749L230.92 25.7002L230.896 25.6581L230.893 25.653L230.894 25.6537H230.893L230.895 25.6471L230.916 25.6087L230.957 25.5342L231.042 25.389C231.156 25.1972 231.28 25.0173 231.406 24.8499C231.533 24.6833 231.664 24.5292 231.794 24.3898C231.924 24.2504 232.049 24.1199 232.173 24.0233C232.298 23.9267 232.433 23.864 232.56 23.8485C232.687 23.8345 232.805 23.867 232.886 23.9105C232.967 23.9547 233.01 24.0108 233.029 24.0528L233.049 24.1191L233.046 24.0484C233.039 24.0026 233.007 23.9326 232.926 23.867C232.847 23.8043 232.721 23.7438 232.553 23.7372C232.386 23.7327 232.206 23.7903 232.044 23.8847C231.879 23.9798 231.732 24.0992 231.577 24.2305C231.423 24.3632 231.266 24.5122 231.115 24.6796C230.965 24.8462 230.819 25.0299 230.686 25.2297L230.589 25.3823L230.542 25.4605L230.48 25.5711L230.438 25.6485L230.477 25.7274L230.536 25.841L230.609 25.9922C230.788 26.4051 230.823 26.835 230.783 27.22C230.735 27.6049 230.609 27.9463 230.456 28.2162C230.303 28.4868 230.13 28.6867 230 28.8187L229.842 28.9647L229.786 29.0163Z" fill="#D03B58"/>
<path d="M218.601 24.0897C218.906 24.041 219.22 23.9415 219.516 24.0307C219.082 24.6597 218.392 25.1066 217.641 25.2452L217.465 25.2519C217.395 25.2356 217.337 25.1877 217.282 25.1405C216.941 24.8389 216.658 24.4687 216.458 24.0587C216.418 23.9754 216.38 23.8884 216.377 23.7962C216.364 23.4902 216.553 23.5934 216.714 23.6952C216.9 23.8139 217.101 23.909 217.31 23.9791C217.724 24.117 218.17 24.1583 218.601 24.0897Z" fill="#F36269"/>
<path d="M217.611 25.0652C217.464 24.8713 217.29 24.6973 217.137 24.5063C216.949 24.2703 216.779 24.0196 216.64 23.7519C217.718 23.2822 217.902 22.2874 218.075 21.1533C218.153 20.6415 218.109 20.1128 217.949 19.6209C217.864 19.3621 217.748 19.1143 217.604 18.8835C217.531 18.767 217.45 18.6542 217.363 18.5465C217.279 18.4418 217.183 18.3747 217.07 18.3002C217.116 18.3784 217.14 18.4639 217.18 18.5428C217.283 18.75 217.395 18.9455 217.476 19.163C217.557 19.3805 217.619 19.6055 217.663 19.8341C217.749 20.2905 217.761 20.7624 217.688 21.2218C217.617 21.6724 217.463 22.1119 217.217 22.4976C216.939 22.9371 216.515 23.3463 216.027 23.5395C216.023 23.541 216.529 24.423 216.581 24.4967C216.716 24.6877 216.868 24.8661 217.037 25.0269C217.204 25.184 217.394 25.3691 217.628 25.4052C217.702 25.417 217.779 25.4148 217.847 25.3845L217.753 25.2725L217.718 25.2194L217.611 25.0652Z" fill="#F14568"/>
<path d="M223.586 26.8594C221.232 28.1594 218.303 28.3703 215.786 27.4205C217.014 28.2818 218.38 28.8312 219.878 28.7398C221.375 28.6476 222.472 27.8637 223.586 26.8594Z" fill="#F14568"/>
<path d="M221.265 29.458C220.282 30.0568 219.002 30.1372 217.952 29.6667C218.351 30.174 218.911 30.4934 219.556 30.4919C220.202 30.4911 220.868 29.9668 221.265 29.458Z" fill="#F14568"/>
<path d="M212.21 15.2149C212.21 15.2149 213.969 13.8669 215.066 13.9753C216.162 14.083 216.489 15.0896 216.056 15.2879C215.624 15.487 212.21 15.2149 212.21 15.2149Z" fill="#FCD18A"/>
<path d="M227.706 16.9685C227.706 16.9685 225.184 14.7371 223.484 14.4082C221.783 14.0793 221.143 15.0726 221.781 15.4723C222.42 15.872 227.706 16.9685 227.706 16.9685Z" fill="#FCD18A"/>
<path d="M223.222 24.7268C223.289 25.2489 224.462 25.5276 225.839 25.3492C227.217 25.1707 228.279 24.6029 228.212 24.0816C228.144 23.5595 226.973 23.2815 225.595 23.4592C224.217 23.6377 223.154 24.2055 223.222 24.7268Z" fill="#F36269"/>
<path d="M209.805 22.0161C209.634 22.3759 210.375 23.0853 211.459 23.6C212.544 24.1147 213.562 24.2408 213.732 23.881C213.903 23.5204 213.162 22.8117 212.078 22.297C210.993 21.7816 209.976 21.6562 209.805 22.0161Z" fill="#F36269"/>
<path d="M226.012 18.4772C225.763 18.8821 225.132 19.118 224.699 19.2375C224.538 18.9661 224.315 18.7818 224.047 18.7316C223.361 18.6048 222.638 19.3953 222.435 20.4977C222.23 21.5994 222.622 22.5964 223.308 22.7232C223.994 22.8501 224.716 22.0596 224.92 20.9571C224.984 20.6157 224.99 20.2854 224.947 19.9867C225.556 19.6232 226.012 18.4772 226.012 18.4772Z" fill="#121414"/>
<path d="M223.679 20.8738C223.679 20.8738 224.332 21.2381 225.027 21.1068C225.722 20.9756 226.196 20.3974 226.196 20.3974C226.196 20.3974 225.544 20.0331 224.848 20.1644C224.154 20.2957 223.679 20.8738 223.679 20.8738Z" fill="white"/>
<path d="M212.651 17.4877C212.722 17.8637 213.129 18.2236 213.421 18.4382C213.62 18.2803 213.841 18.2051 214.058 18.2457C214.611 18.3475 214.928 19.1512 214.763 20.0406C214.6 20.9291 214.018 21.567 213.464 21.4652C212.911 21.3635 212.595 20.5597 212.759 19.6704C212.809 19.3953 212.9 19.1439 213.018 18.9315C212.664 18.4817 212.651 17.4877 212.651 17.4877Z" fill="#121414"/>
<path d="M213.717 19.9653C213.717 19.9653 213.121 20.0516 212.635 19.7522C212.149 19.4528 211.958 18.8813 211.958 18.8813C211.958 18.8813 212.555 18.7943 213.041 19.0937C213.526 19.3931 213.717 19.9653 213.717 19.9653Z" fill="white"/>
<path d="M234.527 25.0712C234.207 24.3021 233.746 23.4548 232.957 23.1864C232.168 22.9172 231.41 23.1547 230.685 23.5683C231.137 21.2138 231.997 18.5613 232.777 16.2938C228.299 15.2703 224.301 12.3007 222.027 8.30913C222.021 9.79722 222.636 11.278 223.694 12.3243C221.828 12.3015 220.006 11.275 219.018 9.69325C217.153 11.7455 214.534 13.21 211.761 13.2173C211.949 9.21098 214.226 5.30638 217.787 3.46137C221.348 1.61564 225.799 1.69603 229.372 3.51744C232.946 5.3381 235.593 8.81204 236.574 12.7011C237.553 16.5902 236.482 21.5692 234.527 25.0712Z" fill="#FABF75"/>
<path d="M204.877 24.8411C206.291 23.4326 207.318 21.5758 208.107 19.719C209.274 16.9419 210.082 13.9835 211.749 11.4778C213.542 8.784 216.212 6.80404 218.823 4.88751C219.455 5.58879 220.091 6.29007 220.727 6.99208C221.087 6.15438 221.441 5.31814 221.8 4.48118C225.272 9.15562 230.531 12.4622 236.248 13.5646C235.335 15.4096 237.063 17.4434 238.719 18.6579C240.375 19.8776 242.362 21.4048 242.097 23.4444C241.872 25.2186 240.016 26.327 239.349 27.9832C238.341 30.4889 240.381 33.2358 242.716 34.5919C245.05 35.9531 247.815 36.6131 249.818 38.4227C251.257 39.7198 252.135 41.5766 252.348 43.4983C253.456 40.7573 253.361 37.4626 251.539 35.1692C251.428 35.0277 251.31 34.892 251.192 34.7622C250.048 33.5182 248.516 32.6753 247.201 31.6031C245.746 30.424 244.443 28.7088 244.673 26.8461C244.956 24.4879 247.543 22.8899 247.779 20.5265C247.956 18.7405 246.712 17.1197 245.333 15.9701C242.12 13.305 241.018 9.95129 238.559 6.82689C235.777 3.29027 230.991 0.95047 226.628 0.248455C223.015 -0.341473 219.184 0.0950928 215.953 1.81621C212.717 3.53806 210.152 6.60273 209.368 10.1814C209.281 10.5877 209.215 10.9947 209.163 11.4128C208.867 13.6708 208.944 16.0224 207.895 18.0215C207.135 19.4654 205.832 20.6032 205.242 22.1237C204.9 23.002 204.818 23.9156 204.877 24.8411Z" fill="#FCD18A"/>
<path d="M209.163 11.4128C209.604 11.2071 210.023 10.9594 210.406 10.6762C212.18 9.36729 213.436 7.48687 214.845 5.79009C216.248 4.08594 217.969 2.47028 220.132 2.02267C220.209 2.55951 220.286 3.09561 220.368 3.63245C221.76 2.60671 223.462 1.99908 225.196 1.91059C228.486 6.59093 233.549 9.9867 239.125 11.2543C238.548 12.8515 239.697 14.5372 240.946 15.6869C242.191 16.8365 243.688 17.933 244.083 19.5775C244.56 21.5699 243.241 23.527 243.027 25.5608C242.791 27.8652 244.024 30.1232 245.751 31.6614C247.313 33.0588 249.247 33.9665 251.192 34.7622C250.048 33.5182 248.516 32.6753 247.201 31.6031C245.746 30.424 244.442 28.7088 244.673 26.8461C244.956 24.4879 247.543 22.8899 247.779 20.5265C247.956 18.7405 246.712 17.1197 245.333 15.9701C242.12 13.3051 241.018 9.9513 238.559 6.82689C235.776 3.29028 230.991 0.950474 226.628 0.248463C223.015 -0.341465 219.184 0.0951004 215.953 1.81622C212.717 3.53807 210.152 6.60274 209.368 10.1814C209.281 10.5877 209.215 10.9947 209.163 11.4128Z" fill="#FDE498"/>
<path d="M253.519 90.4757C253.511 90.5436 253.503 90.6077 253.491 90.6756C253.395 91.2633 253.243 91.8503 253.036 92.4181C252.623 93.5448 251.997 94.5919 251.153 95.4112C250.933 95.6273 250.702 95.8271 250.45 96.0026C250.25 96.1545 250.038 96.2865 249.815 96.4104C248.619 97.066 247.272 97.2577 245.934 97.094C245.63 97.0579 245.327 97.0018 245.023 96.9259C243.935 96.6619 242.88 96.1744 241.953 95.5196C241.514 95.2077 241.102 94.864 240.731 94.4843L240.551 94.2926C238.332 91.9424 237.253 88.7332 236.514 85.5882C235.447 81.0361 233.977 74.8419 235.779 70.2781C236.235 69.127 237.09 68.2155 238.144 67.5725C238.557 67.3203 239.001 67.1087 239.46 66.9406C239.692 66.8528 239.927 66.7769 240.167 66.7171C240.447 66.6412 240.731 66.577 241.018 66.5328C241.274 66.4929 241.53 66.4657 241.786 66.4494C242.049 66.4332 242.317 66.4295 242.581 66.4413C242.957 66.4531 243.328 66.4929 243.692 66.5615C243.988 66.6168 244.275 66.6891 244.551 66.785C244.891 66.8926 245.21 67.029 245.518 67.1927C248.355 68.7236 249.758 71.9645 250.758 75.0255C251.689 77.8631 252.448 80.7522 253.044 83.6776C253.5 85.9156 253.855 88.2222 253.519 90.4757Z" fill="#20795A"/>
<path d="M241.953 95.5196C241.514 95.2077 241.102 94.8641 240.73 94.4843L240.551 94.2926C240.494 94.1562 240.438 94.0205 240.386 93.8804C238.712 89.5289 237.753 84.8412 236.966 80.253C236.242 76.0328 236.051 71.4166 238.144 67.5725C238.557 67.3203 239 67.1087 239.46 66.9406L239.424 67.001C238.005 69.1071 237.369 71.6047 237.262 74.1222C237.158 76.5999 237.533 79.0621 238.005 81.4874C238.436 83.7255 238.9 85.9598 239.455 88.1699C240.087 90.68 240.871 93.1732 241.953 95.5196Z" fill="#51C292"/>
<path d="M245.934 97.094C245.63 97.0579 245.327 97.0018 245.023 96.9259C244.583 95.7313 244.139 94.5403 243.7 93.345C242.852 91.0472 241.801 88.7332 241.302 86.3278C240.822 84.0057 240.894 81.6113 240.422 79.2855C239.955 76.9922 239.36 74.7343 239.4 72.376C239.432 70.4654 239.767 68.5835 240.167 66.7171C240.447 66.6412 240.73 66.577 241.018 66.5328C240.522 68.8387 240.091 71.1733 240.223 73.5389C240.351 75.8573 241.07 78.0828 241.43 80.3651C241.797 82.6865 241.706 85.0528 242.382 87.3226C243.06 89.6049 243.991 91.8304 244.814 94.0647C245.19 95.0757 245.562 96.083 245.934 97.094Z" fill="#51C292"/>
<path d="M251.153 95.4112C250.933 95.6273 250.702 95.8271 250.45 96.0026C250.178 94.3125 249.783 92.6415 249.307 90.9949C248.068 86.7113 246.302 82.6186 244.735 78.4545C243.28 74.586 242.037 70.5937 241.786 66.4494C242.049 66.4332 242.317 66.4295 242.581 66.4413C242.72 68.703 243.164 70.9329 243.784 73.1112C244.991 77.3793 246.809 81.4439 248.344 85.5963C249.526 88.793 250.565 92.0582 251.153 95.4112Z" fill="#51C292"/>
<path d="M253.519 90.4757C253.51 90.5436 253.503 90.6077 253.491 90.6756C253.395 91.2633 253.243 91.8503 253.036 92.4181C252.932 91.691 252.808 90.9676 252.664 90.2442C251.792 85.8124 250.274 81.5722 248.244 77.5438C246.462 74.0064 244.44 70.4853 243.692 66.5615C243.988 66.6168 244.275 66.6891 244.551 66.785C244.974 68.7553 245.718 70.6416 246.581 72.4638C247.524 74.4621 248.595 76.3964 249.551 78.3903C250.51 80.3887 251.341 82.4468 252.02 84.5573C252.644 86.4952 253.143 88.4737 253.519 90.4757Z" fill="#51C292"/>
<path d="M270.383 77.2481C270.383 77.2481 274.136 110.64 271.918 113.904C269.701 117.168 257.304 120.3 252.928 120.77C248.552 121.24 236.954 113.904 236.954 113.904L234.527 81.2301L270.383 77.2481Z" fill="#46689C"/>
<path d="M238.141 79.801C238.141 79.801 235.912 61.014 236.451 58.9588C236.989 56.9044 243.341 43.0743 243.341 43.0743C243.341 43.0743 246.642 43.9533 246.93 45.4863C246.93 45.4863 239.518 58.6285 239.518 60.3525C239.518 62.0766 241.648 79.523 241.648 79.523L238.141 79.801Z" fill="#46689C"/>
<path d="M246.93 45.4863C246.93 45.4863 255.13 50.3518 256.055 54.1281C256.863 57.4287 260.385 70.9049 260.385 70.9049L245.515 72.4313L244.291 55.6095L246.93 45.4863Z" fill="#88C036"/>
<path d="M244.291 70.9676L260.385 68.0386L262.009 74.1886L244.291 75.7998V70.9676Z" fill="#61AE32"/>
<path d="M266.316 168.275C264.955 174.408 253.101 179.464 247.838 179.774C242.583 180.077 231.483 175.175 231.593 171.648C231.702 168.127 231.593 141.42 231.593 141.42L231.728 141.407L260.382 138.505C260.382 138.505 263.491 148.585 265.271 157.285C266.212 161.909 266.786 166.147 266.316 168.275Z" fill="#D1F0FC"/>
<path d="M266.316 168.275C264.955 174.408 253.101 179.464 247.838 179.774C242.583 180.077 231.483 175.175 231.593 171.648C231.702 168.127 231.593 141.42 231.593 141.42L231.728 141.407C232.251 147.211 234.333 168.178 236.939 170.423C239.977 173.028 250.399 175.943 250.399 175.943C250.399 175.943 245.511 174.099 246.419 171.036C247.335 167.972 259.028 161.226 260.382 164.908C261.737 168.584 261.124 170.268 261.124 170.268C261.124 170.268 264.381 169.5 264.749 166.746C264.916 165.444 265.11 161.297 265.271 157.285C266.212 161.909 266.786 166.147 266.316 168.275Z" fill="#B5DEED"/>
<path d="M235.643 141.421C235.643 141.421 241.347 124.449 246.212 125.369C251.077 126.288 257.2 140.693 257.2 140.693L252.829 141.421C252.829 141.421 247.828 129.659 245.699 130.119C243.567 130.579 238.981 143.758 238.981 143.758L235.643 141.421Z" fill="#D1F0FC"/>
<path d="M237.561 135.035C238.759 135.411 240.404 126.892 240.404 126.892L242.78 126.485L242.426 130.109L244.492 134.997C244.492 134.997 245.523 135.029 246.788 134.993C246.946 134.99 247.108 134.983 247.27 134.977C248.026 134.947 248.826 134.888 249.517 134.782C249.584 134.774 249.652 134.762 249.716 134.754C250.06 134.692 251.124 134.324 251.245 134.184L250.5 130.116C250.5 130.116 254.205 125.781 254.375 124.931C254.442 124.593 251.66 117.923 251.328 117.19L247.592 116.933C247.592 116.933 241.654 121.887 241.333 122.184C240.168 123.261 238.992 124.502 238.301 125.655C238.006 126.142 237.802 126.615 237.723 127.051C237.175 130.058 236.364 134.661 237.561 135.035Z" fill="#F68672"/>
<path d="M249.517 134.782C249.584 134.774 249.652 134.762 249.717 134.754C249.664 134.589 249.592 134.375 249.508 134.117C249.319 133.53 249.075 132.733 248.83 131.867C248.59 130.997 248.427 130.199 248.372 129.586C248.36 129.432 248.349 129.291 248.338 129.167C248.341 129.042 248.339 128.934 248.341 128.845C248.338 128.665 248.338 128.56 248.338 128.56C248.338 128.56 248.291 128.654 248.215 128.828C248.176 128.915 248.13 129.024 248.08 129.15C248.044 129.279 248.004 129.425 247.962 129.593C247.805 130.252 247.772 131.212 248.035 132.166C248.304 133.115 248.762 133.859 249.141 134.345C249.282 134.525 249.41 134.669 249.517 134.782Z" fill="#D03B58"/>
<path d="M246.788 134.993C246.946 134.99 247.108 134.983 247.27 134.977L247.239 134.874C247.05 134.287 246.806 133.49 246.562 132.624C246.322 131.754 246.159 130.957 246.103 130.343C246.092 130.188 246.079 130.05 246.07 129.927C246.07 129.8 246.072 129.692 246.071 129.603C246.069 129.421 246.069 129.32 246.069 129.32C246.069 129.32 246.024 129.412 245.946 129.585C245.91 129.673 245.862 129.78 245.814 129.908C245.775 130.036 245.735 130.185 245.693 130.349C245.537 131.011 245.504 131.973 245.768 132.925C246.016 133.806 246.428 134.511 246.788 134.993Z" fill="#D03B58"/>
<path d="M247.592 116.933L249.717 97.3624L247.27 75.5292L258.805 74.4798C258.805 74.4798 259.976 97.7068 259.746 98.8556C259.517 100.005 253.523 123.296 253.523 123.296L247.592 116.933Z" fill="#F68672"/>
<path d="M191.171 27.439L181.399 18.461L178.237 25.1361L191.171 27.439Z" fill="white"/>
<path d="M195.364 26.4391L196.345 18.1602L191.791 18.7479L195.364 26.4391Z" fill="white"/>
<path d="M190.746 33.2416L181.896 33.2556L182.291 37.4493L190.746 33.2416Z" fill="white"/>
<path d="M103.135 232.969C103.135 232.969 80.0472 239 51.5666 239C23.0867 239 -0.000244141 232.969 -0.000244141 232.969C-0.000244141 232.969 23.0867 226.939 51.5666 226.939C80.0472 226.939 103.135 232.969 103.135 232.969Z" fill="#CBB59B"/>
<path d="M225.557 231.936C225.557 231.936 192.39 237.967 151.477 237.967C110.562 237.967 77.3954 231.936 77.3954 231.936C77.3954 231.936 110.562 225.906 151.477 225.906C192.39 225.906 225.557 231.936 225.557 231.936Z" fill="#CBB59B"/>
<path d="M90.21 86.8896L80.6718 80.7268L77.0562 69.2985L70.0171 71.5959L70.8161 86.8896L86.6211 93.5058L90.21 86.8896Z" fill="#F68672"/>
<path d="M97.8205 102.442C97.4926 102.38 97.19 102.258 96.9025 102.096L96.8953 102.091C96.2128 101.719 95.6279 101.119 95.0839 100.54C94.4743 99.8917 93.8276 99.26 93.1756 98.6347C92.6304 98.1071 92.0865 97.5866 91.5601 97.0569C91.2446 96.7499 90.9479 96.4408 90.6506 96.1253L88.2445 94.677C88.2445 94.677 87.6466 94.2521 86.6212 93.5058L87.873 91.1922L87.8802 91.1974L89.3792 88.4264L90.212 86.8902L92.2875 88.1934L94.1561 89.3704C96.9168 88.1759 99.9415 87.2871 102.949 87.2559C103.443 87.2481 103.941 87.2786 104.432 87.2969L104.445 87.2956C105.163 87.3346 105.873 87.3554 106.584 87.2735C107.912 87.1127 109.151 86.5558 110.434 86.1615C110.634 86.1017 110.84 86.0477 111.047 85.9995C111.392 85.9117 111.772 85.8583 112.085 86.0177L112.127 86.0457C112.497 86.2695 112.635 86.7764 112.54 87.2045C112.527 87.2702 112.502 87.3307 112.482 87.3906C112.347 87.7523 112.084 88.0633 111.819 88.3489L111.708 88.4504C110.238 89.9326 108.27 90.9014 106.21 91.1792C105.944 91.2137 105.651 91.2449 105.457 91.4199C105.281 91.5806 105.212 91.8324 105.166 92.0686C104.992 93.0263 105.136 94.0146 105.46 94.9444C105.618 95.4037 105.827 95.8572 106.061 96.2957L106.069 96.3074C106.357 96.8429 106.687 97.3992 106.653 97.9945C106.621 98.474 106.361 98.8748 106.005 99.2151L105.947 99.273C105.666 99.5345 105.329 99.7506 105.009 99.9392C104.839 100.041 104.67 100.136 104.486 100.226C103.138 100.974 101.718 101.602 100.253 102.093C99.4653 102.363 98.6351 102.6 97.8205 102.442Z" fill="#F36269"/>
<path d="M112.087 86.0197C111.774 85.8557 111.394 85.9136 111.045 85.9976C110.84 86.0483 110.633 86.1043 110.432 86.1635C109.152 86.5565 107.913 87.1101 106.586 87.2721C105.873 87.358 105.162 87.334 104.443 87.2936L104.435 87.2975C103.942 87.2767 103.445 87.2474 102.949 87.2526C99.9415 87.2884 96.9174 88.1746 94.1581 89.3704L90.2101 86.8896L89.3773 88.4251L87.8711 91.1948L86.6212 93.5058L91.8516 94.1552C94.3129 92.6164 99.1022 89.4739 102.591 88.5214C103.213 88.3515 103.787 88.2533 104.306 88.2429C104.906 88.2364 105.519 88.2494 106.13 88.2474C107.32 88.2442 108.496 88.1681 109.562 87.671L109.73 87.5923C110.32 87.3281 111.058 87.0737 111.449 87.4459C111.499 87.4927 111.541 87.5435 111.578 87.6059C111.721 87.8545 111.678 88.1603 111.708 88.453L111.816 88.3509C112.086 88.0653 112.344 87.7536 112.48 87.388C112.503 87.3288 112.527 87.2689 112.538 87.2051C112.637 86.7764 112.498 86.2695 112.125 86.0477L112.087 86.0197Z" fill="#F68672"/>
<path d="M99.1276 95.5982C97.6598 96.2716 96.017 96.5163 94.4041 96.446C95.9135 96.9171 97.5564 97.096 99.0756 96.6588C100.595 96.2215 101.966 95.096 102.432 93.5846C102.516 93.3106 102.618 92.9684 102.575 92.7062C102.041 92.9261 101.583 93.8728 101.13 94.2827C100.536 94.8207 99.8557 95.2632 99.1276 95.5982Z" fill="#F14568"/>
<path d="M149.25 105.682C148.914 106.034 148.329 106.116 147.91 105.868C147.538 107.937 147.166 110.006 146.793 112.075C146.706 112.565 146.555 113.134 146.091 113.314C145.482 113.549 144.9 112.933 144.558 112.377C143.75 111.064 143.224 109.682 142.677 108.286H140.806C140.903 109.148 141.571 110.26 141.899 110.833C142.227 111.408 144.055 116.741 144.17 116.763C145.384 117.008 146.653 116.977 147.854 116.671C147.53 112.964 148.009 109.19 149.25 105.682Z" fill="#2AB57E"/>
<path d="M151.91 101.019C152.679 99.9399 152.345 98.2431 151.225 97.5365C150.105 96.8299 148.43 97.2593 147.787 98.4174C147.536 97.2756 146.396 96.3985 145.228 96.4493C144.061 96.4994 143.001 97.4714 142.85 98.6302C142.066 97.3374 140.383 96.6653 138.924 97.0615C137.465 97.4577 136.354 98.8878 136.332 100.4C135.535 100.201 134.655 100.211 133.936 100.607C133.217 101.002 132.71 101.837 132.861 102.644C133.01 103.451 133.93 104.073 134.696 103.777C133.985 104.333 133.768 105.429 134.214 106.213C134.66 106.996 135.712 107.371 136.553 107.045C135.461 108.561 136.324 111.052 138.12 111.567C139.955 112.094 141.78 110.485 141.862 108.678L141.893 108.734C141.902 109.599 142.444 110.411 143.171 110.889C143.934 111.39 144.865 111.571 145.778 111.61C148.329 111.717 152.417 109.998 151.443 106.796L151.441 106.727C153.048 106.574 154.829 106.126 155.034 104.172C155.21 102.489 153.595 100.859 151.91 101.019Z" fill="#2EAE7D"/>
<path d="M166.944 107.757C166.546 107.93 166.036 107.794 165.777 107.446C164.754 109.019 163.731 110.592 162.708 112.165C162.466 112.537 162.144 112.953 161.7 112.941C161.118 112.924 160.852 112.215 160.763 111.638C160.554 110.278 160.6 108.959 160.634 107.62L159.095 106.971C158.876 107.714 159.041 108.861 159.111 109.447C159.182 110.033 158.837 115.054 158.924 115.112C159.838 115.735 160.893 116.149 161.986 116.314C163.005 113.152 164.708 110.213 166.944 107.757Z" fill="#2AB57E"/>
<path d="M170.749 104.842C171.756 104.222 172.069 102.71 171.392 101.74C170.715 100.771 169.189 100.543 168.259 101.273C168.449 100.247 167.814 99.1299 166.836 98.7668C165.859 98.4031 164.649 98.8358 164.123 99.7369C163.926 98.4018 162.775 97.2652 161.438 97.085C160.1 96.9054 158.69 97.6972 158.147 98.9334C157.562 98.4936 156.833 98.1969 156.104 98.2724C155.376 98.3485 154.67 98.8605 154.514 99.5762C154.357 100.292 154.898 101.123 155.631 101.145C154.854 101.356 154.296 102.181 154.391 102.981C154.485 103.781 155.221 104.453 156.026 104.477C154.602 105.346 154.448 107.693 155.747 108.74C157.075 109.81 159.134 109.118 159.828 107.661L159.834 107.718C159.542 108.433 159.705 109.288 160.139 109.934C160.592 110.61 161.296 111.081 162.033 111.429C164.095 112.403 168.054 112.406 168.363 109.433L168.385 109.375C169.76 109.807 171.38 110.057 172.226 108.519C172.954 107.196 172.19 105.295 170.749 104.842Z" fill="#2EAE7D"/>
<path d="M198.607 103.468V142.691H171.28V103.468H198.607Z" fill="#5B9FDC"/>
<path d="M179.349 103.47H173.375V101.056H179.349V103.47Z" fill="#363950"/>
<path d="M198.607 122.055V128.224C198.543 128.25 198.479 128.27 198.415 128.296C195.932 129.205 193.592 130.784 192.303 133.098C191.394 134.717 190.891 136.78 189.241 137.63C187.326 138.617 185.083 137.378 183.09 136.547C179.377 134.981 175.097 134.883 171.28 136.147V115.53C173.356 116.485 175.863 116.627 178.062 115.917C181.665 114.757 184.425 111.74 186.114 108.362C186.895 106.796 187.481 105.158 187.958 103.468H191.413C191.091 107.504 191.826 111.624 193.586 115.266C194.811 117.819 196.532 120.128 198.607 122.055Z" fill="white"/>
<path d="M175.951 121.795L177.135 124.625L178.317 121.795H180.212V127.215H178.65V124.246L177.722 126.69H176.547L175.619 124.246V127.215H174.057V121.795H175.951Z" fill="#363950"/>
<path d="M182.782 121.795V127.215H180.989V121.795H182.782Z" fill="#363950"/>
<path d="M185.351 121.795V125.723H187.608V127.215H183.557V121.795H185.351Z" fill="#363950"/>
<path d="M191.524 127.215L190.395 125.351L189.868 125.939V127.215H188.075V121.795H189.868V123.674L191.485 121.795H193.549L191.616 123.975L193.665 127.215H191.524Z" fill="#363950"/>
<path d="M200.25 130.643C200.614 130.676 200.991 130.701 201.337 130.581C201.682 130.462 201.991 130.16 202.003 129.793C202.019 129.316 201.563 128.971 201.146 128.737C199.824 127.994 198.379 127.466 196.889 127.182C199.017 127.064 201.106 126.316 202.826 125.057C203.382 124.649 203.939 123.87 203.488 123.348C203.215 123.031 202.729 123.04 202.312 123.088C200.695 123.273 199.098 123.639 197.562 124.177C198.759 123.266 199.552 121.84 199.692 120.342C199.73 119.938 199.668 119.439 199.297 119.275C198.954 119.123 198.569 119.358 198.279 119.596C197.13 120.539 196.179 121.723 195.507 123.048C195.81 122.431 196.121 121.774 196.059 121.089C195.997 120.404 195.399 119.72 194.72 119.831C194.19 119.917 193.843 120.421 193.585 120.892C192.79 122.339 190.538 127.207 191.814 128.722C192.418 129.439 194.747 129.689 195.633 129.897C197.152 130.253 198.695 130.503 200.25 130.643Z" fill="#2EAE7D"/>
<path d="M189.682 124.133C188.259 124.277 186.929 124.874 185.67 125.58C185.486 125.682 185.296 125.797 185.114 125.908C184.977 125.982 184.852 126.061 184.721 126.138C181.642 127.988 178.5 130.049 175.591 132.352C175.422 132.482 175.251 132.618 175.085 132.758C173.334 134.164 171.675 135.666 170.165 137.26C168.009 139.537 169.126 140.681 171.836 140.153C172.8 139.967 173.76 139.757 174.718 139.518C174.926 139.475 175.139 139.419 175.349 139.37C177.488 138.834 179.608 138.192 181.69 137.449C181.89 137.375 182.091 137.3 182.291 137.225C183.351 136.834 184.401 136.417 185.434 135.972C185.631 135.888 185.823 135.803 186.017 135.711C187.176 135.202 188.317 134.655 189.441 134.081C190.279 133.65 191.127 133.181 191.887 132.625C192.08 132.484 192.269 132.341 192.44 132.19C192.845 131.852 193.216 131.479 193.542 131.065C194.591 129.713 195.067 127.784 194.282 126.264C193.46 124.665 191.467 123.958 189.682 124.133Z" fill="#F68640"/>
<path d="M172.768 137.408C173.053 138.108 173.342 138.816 173.635 139.518C173.843 139.475 174.055 139.419 174.266 139.37C173.967 138.636 173.668 137.903 173.369 137.169C173.204 136.789 172.611 137.024 172.768 137.408Z" fill="#F46F2E"/>
<path d="M174.507 132.352C174.339 132.482 174.167 132.618 174.002 132.758C174.738 134.166 175.41 135.609 176.015 137.078C176.171 137.462 176.772 137.223 176.616 136.839C175.988 135.311 175.284 133.812 174.507 132.352Z" fill="#F46F2E"/>
<path d="M178.447 133.143C179.291 134.513 180.012 135.956 180.607 137.449C180.807 137.375 181.008 137.3 181.208 137.225C180.597 135.674 179.841 134.182 178.962 132.762C178.745 132.408 178.229 132.789 178.447 133.143Z" fill="#F46F2E"/>
<path d="M181.7 129.935C182.8 131.845 183.689 133.873 184.35 135.972C184.548 135.888 184.739 135.803 184.933 135.711C184.255 133.57 183.347 131.505 182.217 129.548C182.014 129.193 181.496 129.58 181.7 129.935Z" fill="#F46F2E"/>
<path d="M184.587 125.58C184.402 125.682 184.213 125.797 184.031 125.908C185.217 127.784 186.093 129.841 186.605 132.009C186.702 132.402 187.341 132.335 187.244 131.927C186.709 129.679 185.809 127.534 184.587 125.58Z" fill="#F46F2E"/>
<path d="M188.922 127.076C188.773 127.194 188.771 127.376 188.851 127.53C189.74 129.123 190.404 130.843 190.803 132.625C190.997 132.484 191.186 132.341 191.356 132.19C190.926 130.43 190.258 128.736 189.376 127.146C189.287 126.995 189.047 126.983 188.922 127.076Z" fill="#F46F2E"/>
<path d="M193.286 118.446C193.267 118.08 193.238 117.703 193.07 117.379C192.902 117.054 192.558 116.792 192.194 116.832C191.719 116.884 191.444 117.385 191.271 117.832C190.725 119.247 190.41 120.752 190.343 122.268C189.921 120.179 188.881 118.218 187.388 116.697C186.905 116.205 186.054 115.766 185.602 116.287C185.327 116.603 185.406 117.083 185.514 117.487C185.928 119.062 186.52 120.59 187.273 122.033C186.199 120.978 184.674 120.399 183.171 120.474C182.765 120.495 182.282 120.627 182.173 121.018C182.072 121.38 182.359 121.727 182.636 121.98C183.734 122.983 185.042 123.753 186.45 124.229C185.795 124.017 185.101 123.803 184.432 123.962C183.763 124.122 183.171 124.813 183.378 125.468C183.54 125.981 184.088 126.251 184.592 126.44C186.138 127.019 191.278 128.549 192.595 127.069C193.218 126.369 193.132 124.029 193.21 123.121C193.345 121.567 193.371 120.003 193.286 118.446Z" fill="#2EAE7D"/>
<path d="M188.514 130.91C188.86 132.297 189.642 133.528 190.521 134.672C190.648 134.84 190.79 135.012 190.926 135.175C191.018 135.3 191.115 135.413 191.209 135.533C193.482 138.313 195.973 141.127 198.667 143.677C198.822 143.825 198.981 143.975 199.143 144.119C200.785 145.65 202.509 147.077 204.303 148.342C206.867 150.15 207.838 148.88 206.928 146.274C206.604 145.347 206.259 144.427 205.886 143.512C205.813 143.313 205.727 143.11 205.649 142.909C204.812 140.87 203.872 138.862 202.839 136.91C202.736 136.723 202.633 136.535 202.531 136.347C201.992 135.354 201.428 134.375 200.839 133.417C200.729 133.233 200.617 133.056 200.498 132.877C199.827 131.802 199.124 130.752 198.394 129.722C197.848 128.953 197.261 128.182 196.602 127.51C196.435 127.338 196.266 127.173 196.092 127.025C195.7 126.672 195.278 126.358 194.822 126.095C193.333 125.252 191.356 125.056 189.964 126.052C188.499 127.095 188.085 129.167 188.514 130.91Z" fill="#F68640"/>
<path d="M203.922 144.673C204.572 144.291 205.232 143.903 205.885 143.513C205.813 143.313 205.727 143.11 205.649 142.909C204.965 143.311 204.282 143.712 203.598 144.113C203.246 144.331 203.564 144.883 203.922 144.673Z" fill="#F46F2E"/>
<path d="M198.667 143.677C198.822 143.825 198.981 143.975 199.143 144.119C200.43 143.188 201.762 142.315 203.129 141.507C203.487 141.297 203.165 140.737 202.807 140.946C201.384 141.787 200.001 142.699 198.667 143.677Z" fill="#F46F2E"/>
<path d="M198.886 139.664C200.122 138.633 201.446 137.712 202.839 136.91C202.736 136.722 202.633 136.534 202.531 136.347C201.084 137.174 199.715 138.136 198.436 139.209C198.116 139.475 198.567 139.931 198.886 139.664Z" fill="#F46F2E"/>
<path d="M195.246 136.905C196.978 135.542 198.857 134.372 200.839 133.417C200.728 133.233 200.616 133.056 200.498 132.877C198.476 133.855 196.563 135.05 194.788 136.449C194.466 136.7 194.923 137.158 195.246 136.905Z" fill="#F46F2E"/>
<path d="M190.521 134.672C190.649 134.84 190.79 135.012 190.926 135.175C192.612 133.733 194.523 132.572 196.595 131.753C196.97 131.601 196.811 130.979 196.422 131.133C194.274 131.984 192.28 133.183 190.521 134.672Z" fill="#F46F2E"/>
<path d="M191.38 130.167C191.519 130.298 191.699 130.274 191.84 130.171C193.289 129.065 194.896 128.16 196.602 127.51C196.435 127.338 196.266 127.173 196.092 127.025C194.412 127.703 192.832 128.608 191.384 129.708C191.248 129.818 191.27 130.058 191.38 130.167Z" fill="#F46F2E"/>
<path d="M179.295 146.936C179.282 147.045 179.27 147.148 179.251 147.258C179.096 148.205 178.85 149.153 178.515 150.069C177.851 151.887 176.839 153.576 175.48 154.897C175.124 155.245 174.751 155.568 174.344 155.852C174.022 156.097 173.681 156.31 173.319 156.509C171.392 157.567 169.219 157.876 167.059 157.612C166.569 157.554 166.079 157.464 165.589 157.341C163.836 156.915 162.135 156.129 160.639 155.072C159.929 154.569 159.265 154.014 158.666 153.401C158.563 153.299 158.466 153.196 158.376 153.092C154.798 149.302 153.057 144.125 151.864 139.052C150.143 131.709 147.771 121.716 150.678 114.354C151.413 112.497 152.793 111.027 154.495 109.989C155.158 109.583 155.874 109.241 156.616 108.971C156.99 108.829 157.37 108.706 157.756 108.61C158.208 108.487 158.666 108.384 159.13 108.313C159.542 108.248 159.955 108.204 160.368 108.178C160.793 108.152 161.225 108.146 161.651 108.164C162.256 108.184 162.856 108.248 163.443 108.358C163.92 108.449 164.384 108.565 164.829 108.719C165.377 108.893 165.893 109.112 166.389 109.377C170.966 111.846 173.229 117.074 174.841 122.012C176.343 126.59 177.568 131.251 178.528 135.97C179.264 139.58 179.837 143.3 179.295 146.936Z" fill="#20795A"/>
<path d="M160.639 155.072C159.929 154.569 159.265 154.014 158.666 153.401C158.562 153.299 158.465 153.196 158.376 153.092C158.285 152.873 158.195 152.654 158.112 152.428C155.41 145.408 153.863 137.846 152.593 130.445C151.426 123.637 151.117 116.191 154.495 109.99C155.158 109.583 155.874 109.241 156.616 108.971L156.558 109.068C154.269 112.465 153.244 116.494 153.07 120.556C152.902 124.553 153.508 128.524 154.269 132.437C154.965 136.047 155.713 139.651 156.609 143.216C157.628 147.265 158.892 151.287 160.639 155.072Z" fill="#51C292"/>
<path d="M167.059 157.612C166.569 157.554 166.079 157.464 165.589 157.341C164.881 155.413 164.165 153.492 163.456 151.565C162.09 147.858 160.394 144.125 159.588 140.244C158.814 136.499 158.93 132.637 158.17 128.885C157.415 125.184 156.455 121.542 156.519 117.739C156.57 114.657 157.112 111.621 157.757 108.61C158.208 108.487 158.666 108.384 159.13 108.313C158.33 112.032 157.634 115.798 157.847 119.614C158.053 123.353 159.214 126.944 159.794 130.626C160.387 134.371 160.239 138.188 161.329 141.85C162.424 145.531 163.926 149.121 165.255 152.725C165.86 154.356 166.46 155.981 167.059 157.612Z" fill="#51C292"/>
<path d="M175.479 154.897C175.124 155.245 174.751 155.568 174.344 155.852C173.906 153.125 173.267 150.43 172.501 147.774C170.502 140.863 167.652 134.261 165.125 127.543C162.779 121.303 160.774 114.863 160.368 108.178C160.793 108.152 161.225 108.146 161.651 108.165C161.876 111.813 162.592 115.411 163.591 118.925C165.538 125.81 168.471 132.366 170.947 139.064C172.855 144.222 174.531 149.489 175.479 154.897Z" fill="#51C292"/>
<path d="M179.296 146.936C179.283 147.045 179.27 147.148 179.251 147.258C179.096 148.206 178.851 149.153 178.516 150.069C178.348 148.896 178.148 147.729 177.916 146.562C176.511 139.412 174.061 132.573 170.786 126.074C167.911 120.369 164.649 114.689 163.443 108.358C163.92 108.449 164.385 108.565 164.829 108.72C165.512 111.897 166.711 114.94 168.104 117.88C169.626 121.104 171.353 124.224 172.894 127.441C174.441 130.664 175.782 133.985 176.878 137.388C177.884 140.515 178.689 143.706 179.296 146.936Z" fill="#51C292"/>
<path d="M183.638 161.271C183.638 164.597 174.999 165.855 169.094 165.726C163.421 165.848 155.246 164.694 154.601 161.665C154.563 161.536 154.55 161.407 154.55 161.271C154.55 158.461 157.773 142.602 159.289 135.304C159.76 133.067 160.062 131.629 160.062 131.629H178.12C178.12 131.629 178.422 133.067 178.893 135.304C180.408 142.602 183.638 158.461 183.638 161.271Z" fill="#FAB663"/>
<path d="M178.893 135.304C178.422 133.067 178.12 131.629 178.12 131.629H174.91H160.062C160.062 131.629 159.76 133.067 159.289 135.304H175.742C177.554 143.404 180.178 155.882 179.661 157.822C178.932 160.601 166.296 165.462 154.602 161.665C155.246 164.694 163.421 165.848 169.094 165.726C174.999 165.855 183.638 164.597 183.638 161.271C183.638 158.461 180.408 142.602 178.893 135.304Z" fill="#F7923D"/>
<path d="M179.662 133.121H158.522V128.296H179.662V133.121Z" fill="#FAB663"/>
<path d="M175.521 150.93H159.436V143.73H175.521V150.93Z" fill="white"/>
<path d="M204.308 161.586C204.308 164.912 195.669 166.169 189.764 166.041C184.091 166.163 175.917 165.009 175.271 161.979C175.233 161.85 175.22 161.722 175.22 161.586C175.22 158.775 178.443 142.916 179.958 135.618C180.429 133.382 180.732 131.944 180.732 131.944H198.79C198.79 131.944 199.093 133.382 199.563 135.618C201.078 142.916 204.308 158.775 204.308 161.586Z" fill="#F04242"/>
<path d="M199.563 135.618C199.093 133.382 198.79 131.944 198.79 131.944H195.579H180.732C180.732 131.944 180.429 133.382 179.958 135.618H196.412C198.224 143.719 200.849 156.197 200.33 158.137C199.602 160.916 186.966 165.776 175.271 161.979C175.917 165.009 184.091 166.163 189.764 166.041C195.669 166.169 204.308 164.912 204.308 161.586C204.308 158.775 201.078 142.916 199.563 135.618Z" fill="#EF2D2E"/>
<path d="M200.332 133.437H179.192V128.611H200.332V133.437Z" fill="#F04242"/>
<path d="M196.191 151.245H180.106V144.045H196.191V151.245Z" fill="white"/>
<path d="M138.068 120.617L124.54 121.444C124.54 121.444 118.5 91.2462 122.163 82.5896C122.713 81.2812 123.487 80.4679 124.54 80.3208C128.674 79.7476 132.144 90.4954 134.529 101.034C136.774 110.922 138.068 120.617 138.068 120.617Z" fill="#FAB663"/>
<path d="M130.465 92.4759C128.215 90.8981 125.602 89.8409 122.888 89.4082C125.025 91.5071 127.474 92.6223 130.465 92.4759Z" fill="#F7923D"/>
<path d="M131.274 100.171C129.023 98.5931 126.411 97.5359 123.697 97.1032C125.834 99.2021 128.283 100.317 131.274 100.171Z" fill="#F7923D"/>
<path d="M132.151 108.214C129.901 106.636 127.289 105.579 124.574 105.146C126.712 107.245 129.16 108.36 132.151 108.214Z" fill="#F7923D"/>
<path d="M134.529 101.034C134.18 99.8722 133.855 98.7031 133.522 97.5417C132.524 94.1038 131.393 90.6268 129.31 87.7152C127.56 85.2838 125.036 83.2786 122.163 82.5896C122.713 81.2812 123.487 80.4679 124.54 80.3208C128.675 79.7476 132.144 90.4954 134.529 101.034Z" fill="#F7923D"/>
<path d="M144.253 163.255L138.504 111.643L120.621 113.144L126.071 163.255H144.253Z" fill="#C07E53"/>
<path d="M158.056 143.275C157.92 143.773 157.269 144.153 156.5 144.437C156.506 140.235 156.509 136.096 156.504 132.927C157.465 133.076 158.304 133.257 158.38 133.447C158.565 133.911 158.426 141.917 158.056 143.275ZM160.648 130.933C160.194 130.22 158.243 129.916 156.493 129.788C156.484 128.275 156.47 127.336 156.452 127.231C156.329 126.552 148.923 121.8 148.923 121.8V117.11H138.926V122.294C138.926 122.294 132.015 127.231 131.521 128.464C131.028 129.699 131.521 163.268 131.521 163.268H156.452C156.452 163.268 156.478 155.817 156.494 147.692C158.392 147.254 160.513 146.697 160.648 146.36C160.895 145.743 161.512 132.29 160.648 130.933Z" fill="#D1F0FC"/>
<path d="M150.374 119.24H137.508V113.408H150.374V119.24Z" fill="#363950"/>
<path d="M198.18 209.604H111.55C111.065 209.604 110.606 209.385 110.3 209.009C109.994 208.632 109.874 208.137 109.973 207.663L119.165 163.773C119.347 162.902 120.201 162.345 121.072 162.526C121.944 162.708 122.502 163.563 122.32 164.433L113.535 206.381H198.18C199.07 206.381 199.792 207.102 199.792 207.993C199.792 208.883 199.07 209.604 198.18 209.604Z" fill="#BCBEBC"/>
<path d="M112.928 107.349C112.183 107.349 111.514 106.83 111.354 106.073L109.633 97.975L93.0449 95.4974C92.1646 95.366 91.5576 94.5455 91.689 93.6652C91.8205 92.7849 92.6409 92.1799 93.5212 92.3093L111.215 94.9522C111.88 95.0517 112.413 95.5534 112.553 96.2111L114.506 105.403C114.691 106.273 114.135 107.129 113.265 107.313C113.152 107.338 113.039 107.349 112.928 107.349Z" fill="#363950"/>
<path d="M122.157 162.523L202.347 164.299L209.864 121.343L114.81 107.638L122.157 162.523ZM203.696 167.553L203.66 167.553L120.707 165.715C119.913 165.697 119.25 165.104 119.145 164.317L111.332 105.951C111.265 105.451 111.437 104.947 111.796 104.592C112.155 104.237 112.66 104.069 113.16 104.142L211.968 118.389C212.399 118.452 212.787 118.686 213.043 119.038C213.299 119.391 213.401 119.834 213.326 120.262L205.283 166.22C205.148 166.992 204.477 167.553 203.696 167.553Z" fill="#BCBEBC"/>
<path d="M196.281 149.314L185.886 149.18L187.101 130.834L198.68 131.382L196.281 149.314ZM174.252 149.031L174.799 130.251L185.813 130.773L184.594 149.164L174.252 149.031ZM164.281 148.903V129.754L173.511 130.191L172.961 149.014L164.281 148.903ZM152.959 148.758L152.782 129.21L162.992 129.693V148.887L152.959 148.758ZM141.471 148.61L140.726 128.639L151.493 129.149L151.669 148.741L141.471 148.61ZM130.855 148.474L128.963 128.082L139.433 128.578L140.18 148.594L130.855 148.474ZM209.795 130.616L200.143 130.16L201.698 118.53C201.746 118.178 201.498 117.853 201.145 117.806C200.792 117.759 200.467 118.007 200.421 118.359L198.851 130.099L187.186 129.546L188.049 116.519C188.072 116.163 187.804 115.856 187.448 115.833C187.094 115.807 186.786 116.078 186.762 116.433L185.898 129.486L174.836 128.963L175.271 114.029C175.282 113.673 175.002 113.376 174.646 113.365C174.297 113.343 173.993 113.635 173.983 113.991L173.548 128.901L164.281 128.463V113.049C164.281 112.693 163.993 112.404 163.637 112.404C163.281 112.404 162.992 112.693 162.992 113.049V128.402L152.771 127.918L152.622 111.362C152.618 111.008 152.33 110.723 151.977 110.723H151.971C151.615 110.726 151.329 111.018 151.332 111.373L151.481 127.857L140.677 127.346L140.013 109.526C139.999 109.17 139.696 108.887 139.345 108.906C138.989 108.919 138.711 109.218 138.724 109.574L139.385 127.285L128.842 126.786L127.065 107.624C127.032 107.269 126.715 107.01 126.363 107.042C126.009 107.074 125.748 107.388 125.78 107.743L127.542 126.724L115.781 126.168C115.422 126.159 115.123 126.426 115.107 126.781C115.09 127.137 115.365 127.439 115.72 127.456L127.662 128.021L129.558 148.457L118.724 148.318H118.715C118.363 148.318 118.076 148.601 118.071 148.954C118.066 149.31 118.351 149.603 118.707 149.607L129.678 149.748L131.015 164.163C131.047 164.497 131.327 164.748 131.656 164.748L131.717 164.745C132.071 164.713 132.332 164.398 132.299 164.044L130.974 149.765L140.228 149.883L140.776 164.586C140.789 164.933 141.075 165.206 141.42 165.206L141.445 165.206C141.8 165.192 142.078 164.893 142.065 164.538L141.519 149.9L151.681 150.031L151.808 164.109C151.811 164.463 152.1 164.748 152.453 164.748H152.459C152.815 164.745 153.101 164.454 153.098 164.098L152.971 150.047L162.992 150.176V165.264C162.992 165.62 163.281 165.909 163.637 165.909C163.993 165.909 164.281 165.62 164.281 165.264V150.193L172.924 150.304L172.489 165.245C172.478 165.601 172.758 165.898 173.114 165.908L173.133 165.909C173.481 165.909 173.768 165.633 173.777 165.283L174.214 150.32L184.509 150.452L183.514 165.466C183.491 165.821 183.76 166.128 184.115 166.152L184.158 166.153C184.495 166.153 184.779 165.892 184.801 165.551L185.8 150.469L196.11 150.602L194.096 165.657C194.05 166.011 194.297 166.335 194.65 166.382L194.736 166.387C195.055 166.387 195.331 166.152 195.374 165.828L197.408 150.618L206.461 150.734H206.469C206.821 150.734 207.11 150.451 207.114 150.098C207.119 149.742 206.834 149.449 206.478 149.444L197.58 149.331L199.972 131.443L209.734 131.905L209.765 131.905C210.107 131.905 210.392 131.637 210.408 131.291C210.425 130.935 210.151 130.633 209.795 130.616Z" fill="#BCBEBC"/>
<path d="M133.155 225.137C133.155 229.691 129.463 233.384 124.908 233.384C120.353 233.384 116.661 229.691 116.661 225.137C116.661 220.581 120.353 216.89 124.908 216.89C129.463 216.89 133.155 220.581 133.155 225.137Z" fill="#363950"/>
<path d="M123.065 208.793L124.771 219.955L121.902 226.001L124.771 227.939L133.142 219.491L133.684 208.793H123.065Z" fill="#DCDDDA"/>
<path d="M125.856 225.304C125.856 225.946 125.335 226.466 124.693 226.466C124.051 226.466 123.53 225.946 123.53 225.304C123.53 224.662 124.051 224.142 124.693 224.142C125.335 224.142 125.856 224.662 125.856 225.304Z" fill="#363950"/>
<path d="M137.26 211.051H119.486V205.417H137.26V211.051Z" fill="#363950"/>
<path d="M187.308 225.137C187.308 229.691 183.616 233.384 179.061 233.384C174.506 233.384 170.814 229.691 170.814 225.137C170.814 220.581 174.506 216.89 179.061 216.89C183.616 216.89 187.308 220.581 187.308 225.137Z" fill="#363950"/>
<path d="M176.809 208.793L178.515 219.955L175.646 226.001L178.515 227.939L186.887 219.491L187.429 208.793H176.809Z" fill="#DCDDDA"/>
<path d="M179.6 225.304C179.6 225.946 179.08 226.466 178.437 226.466C177.795 226.466 177.274 225.946 177.274 225.304C177.274 224.662 177.795 224.142 178.437 224.142C179.08 224.142 179.6 224.662 179.6 225.304Z" fill="#363950"/>
<path d="M191.004 211.051H173.23V205.417H191.004V211.051Z" fill="#363950"/>
<path d="M59.8108 41.2337C59.8108 41.2337 71.5683 44.9833 72.7167 46.5936C73.8657 48.2039 82.3739 76.3527 82.3739 76.3527L65.3275 79.9812L59.8108 41.2337Z" fill="#DCDDDA"/>
<path d="M83.4924 73.9213L84.957 79.0886L69.6477 82.0775L69.1552 77.5017L83.4924 73.9213Z" fill="white"/>
<path d="M37.042 230.447C37.2977 229.967 37.4708 229.316 37.098 228.665C36.0089 226.767 31.703 220.206 31.0394 217.767C30.5241 215.873 31.0335 212.937 31.2872 211.719L19.7379 204.178C16.9454 206.54 12.3852 211.687 11.4359 212.768L37.042 230.447Z" fill="#DD3464"/>
<path d="M35.234 232.969L9.6272 215.29L11.4359 212.768L37.0421 230.447L35.234 232.969Z" fill="white"/>
<path d="M28.3762 216.985L28.2617 217.036C27.978 217.171 27.654 217.455 27.8557 217.793C27.9585 217.965 28.1491 218.067 28.3345 218.149C28.9747 218.431 29.6644 218.551 30.3586 218.618C31.1049 218.689 31.9039 218.761 32.6202 218.489C33.3613 218.207 33.2227 217.371 32.5246 217.073C31.3177 216.56 29.6078 216.456 28.3762 216.985Z" fill="white"/>
<path d="M29.3313 219.664L29.2161 219.715C28.9325 219.849 28.6084 220.134 28.8101 220.471C28.9129 220.644 29.1036 220.746 29.2896 220.827C29.9299 221.109 30.6189 221.23 31.3138 221.297C32.06 221.369 32.859 221.44 33.5753 221.168C34.3158 220.886 34.1772 220.05 33.4797 219.753C32.2728 219.238 30.5623 219.135 29.3313 219.664Z" fill="white"/>
<path d="M31.0629 222.191L30.9483 222.243C30.664 222.377 30.34 222.661 30.5417 222.999C30.6445 223.171 30.8351 223.273 31.0212 223.355C31.6614 223.637 32.3511 223.757 33.0453 223.824C33.7916 223.896 34.5906 223.967 35.3069 223.695C36.0473 223.413 35.9094 222.577 35.2113 222.28C34.0043 221.766 32.2938 221.662 31.0629 222.191Z" fill="white"/>
<path d="M62.9056 170.752L47.381 155.751L16.5054 202.849L33.1159 214.362L62.9056 170.752Z" fill="#282A3E"/>
<path d="M49.3527 117.235C50.4347 128.937 51.8583 147.919 50.136 152.038C50.082 152.168 49.6695 152.856 48.9935 153.951L66.3946 169.357C66.3946 169.357 72.6211 159.162 73.3726 155.315C75.0577 146.682 71.545 123.839 70.6588 117.235H49.3527Z" fill="#282A3E"/>
<path d="M71.6834 166.042L55.8347 117.235H29.3932C31.4863 122.419 48.1502 163.7 52.4118 173.941L58.0221 220.341L75.8565 216.637L75.4167 211.327L71.6834 166.042Z" fill="#363950"/>
<path d="M60.6955 165.679C61.2264 167.62 62.4997 169.348 64.1958 170.43C65.3201 171.148 66.8758 171.551 67.9337 170.739C68.9057 169.993 69.0111 168.58 68.9103 167.359C68.7808 165.802 68.4523 164.262 67.935 162.787C67.4659 161.452 66.7775 160.096 65.5602 159.375C61.24 156.812 59.9121 162.814 60.6955 165.679Z" fill="#52546E"/>
<path d="M91.1972 226.551C91.058 226.027 90.7404 225.431 90.0195 225.195C87.9128 224.505 80.2334 222.481 78.0721 221.11C76.3941 220.047 74.763 217.535 74.1169 216.466L60.399 218.488C59.9455 222.079 60.0887 228.897 60.1245 230.323L91.1972 226.551Z" fill="#DD3464"/>
<path d="M91.5829 229.611L60.5102 233.384L60.1244 230.323L91.1971 226.551L91.5829 229.611Z" fill="white"/>
<path d="M75.5633 222.285L75.5139 222.399C75.3955 222.686 75.3499 223.11 75.7305 223.228C75.9244 223.287 76.1359 223.237 76.3291 223.175C76.996 222.962 77.59 222.598 78.1502 222.189C78.7527 221.75 79.3936 221.277 79.7377 220.603C80.0936 219.906 79.4189 219.378 78.6987 219.618C77.4521 220.032 76.1144 221.082 75.5633 222.285Z" fill="white"/>
<path d="M78.1046 223.641L78.0545 223.755C77.9367 224.042 77.8905 224.466 78.2711 224.584C78.4657 224.643 78.6758 224.593 78.8697 224.531C79.5366 224.318 80.1307 223.954 80.6908 223.546C81.2927 223.106 81.9335 222.633 82.2784 221.959C82.6343 221.263 81.9596 220.734 81.2387 220.974C79.9927 221.388 78.655 222.438 78.1046 223.641Z" fill="white"/>
<path d="M81.1163 224.373L81.0668 224.487C80.9491 224.774 80.9029 225.198 81.2835 225.315C81.478 225.375 81.6882 225.325 81.8821 225.263C82.549 225.05 83.143 224.686 83.7032 224.278C84.305 223.838 84.9459 223.365 85.2901 222.691C85.6466 221.994 84.9719 221.466 84.251 221.706C83.0051 222.12 81.6673 223.17 81.1163 224.373Z" fill="white"/>
<path d="M61.4061 212.771C61.4061 212.771 56.8009 175.114 55.7541 171.102C54.8191 167.525 38.368 126.182 34.8064 117.235H29.3932C31.4863 122.419 48.1502 163.7 52.4118 173.941L58.0221 220.341L75.8565 216.637L75.4167 211.327L61.4061 212.771Z" fill="#282A3E"/>
<path d="M44.0872 39.8121C44.0872 39.8121 35.4918 41.8485 34.1131 42.939C32.7344 44.0294 28.7298 110.016 30.426 117.235C30.426 117.235 59.7934 118.369 71.1573 116.625C71.1573 116.625 70.7637 53.1447 69.2705 49.1232C67.7766 45.1017 59.811 41.2337 59.811 41.2337L49.5655 44.7575L44.0872 39.8121Z" fill="#DCDDDA"/>
<path d="M46.8553 38.8485L44.0869 39.812C44.0869 39.812 46.9438 49.7166 52.9394 52.1681L58.5133 47.5942L63.9519 50.8467C63.9519 50.8467 60.3852 42.0762 59.8107 41.2337L56.9615 40.7001L46.8553 38.8485Z" fill="white"/>
<path d="M47.3308 41.9396C47.5891 42.1218 58.5132 47.5942 58.5132 47.5942C58.5132 47.5942 57.5216 43.2226 57.0148 40.9435C56.8606 40.2376 56.7493 39.732 56.7298 39.6201C56.5697 38.7014 56.6608 34.5862 56.6608 34.5862L46.118 31.823C46.118 31.823 46.3152 33.8633 46.5527 36.1119C46.8396 38.8244 47.1883 41.8394 47.3308 41.9396Z" fill="#F68672"/>
<path d="M46.5527 36.1119C49.608 37.609 56.3342 40.8765 56.9601 40.9416L57.0148 40.9435C56.8606 40.2376 56.7493 39.7321 56.7298 39.6201C56.5697 38.7015 56.6608 34.5862 56.6608 34.5862L46.118 31.823C46.118 31.823 46.3152 33.8634 46.5527 36.1119Z" fill="#F36269"/>
<path d="M44.8418 32.3968C44.8418 32.3968 45.2088 33.0592 46.4677 33.8334H46.4697C46.7267 33.9928 47.0234 34.1568 47.361 34.3207C48.6493 34.9427 60.1745 37.6682 61.7881 37.1601C63.4023 36.6519 63.9697 30.7026 63.9514 30.091C63.8441 26.3349 63.3307 14.7596 63.3307 14.7596C57.1049 3.13284 43.6791 12.0562 42.238 13.5559C40.7969 15.0563 44.8418 32.3968 44.8418 32.3968Z" fill="#F68672"/>
<path d="M46.4695 33.8334C46.7265 33.9928 47.0232 34.1568 47.3608 34.3207C48.6491 34.9427 60.1743 37.6682 61.7879 37.1601C63.4021 36.6519 63.9694 30.7026 63.9512 30.091C63.3572 32.7638 62.7957 36.4145 61.6064 36.5081C59.8152 36.6506 47.8911 34.2914 46.4695 33.8334Z" fill="#F9AA7F"/>
<path d="M62.8159 19.3075C62.8159 19.3075 61.1789 16.3855 59.9317 17.2925C58.6844 18.1995 59.1685 18.3758 59.1685 18.3758L62.8159 19.3075Z" fill="#353638"/>
<path d="M46.7229 18.1377C46.7229 18.1377 50.4113 13.8682 51.9292 15.3784C52.8154 16.2593 52.2025 16.8624 52.2025 16.8624L46.7229 18.1377Z" fill="#353638"/>
<path d="M49.6096 23.3915C49.808 24.5307 50.5446 25.3544 51.2544 25.2308C51.9642 25.1072 52.3787 24.0831 52.1796 22.9432C51.9811 21.8033 51.2446 20.9803 50.5348 21.1039C49.825 21.2275 49.4105 22.2516 49.6096 23.3915Z" fill="#121414"/>
<path d="M48.1809 22.4533C48.1809 22.4533 48.7567 23.0837 49.5954 23.2639C50.434 23.4442 51.2174 23.1065 51.2174 23.1065C51.2174 23.1065 50.6422 22.4767 49.8036 22.2965C48.9649 22.1156 48.1809 22.4533 48.1809 22.4533Z" fill="white"/>
<path d="M61.8947 22.0466C62.0443 22.9061 61.732 23.6778 61.1972 23.7708C60.6624 23.8645 60.1074 23.2438 59.9571 22.3843C59.8075 21.5255 60.1198 20.7532 60.6552 20.6601C61.1901 20.5671 61.745 21.1878 61.8947 22.0466Z" fill="#121414"/>
<path d="M62.5949 21.1468C62.5949 21.1468 62.3346 21.6654 61.8167 21.9874C61.2988 22.3108 60.7191 22.3153 60.7191 22.3153C60.7191 22.3153 60.9794 21.7974 61.4973 21.4747C62.0152 21.152 62.5949 21.1468 62.5949 21.1468Z" fill="white"/>
<path d="M53.7808 32.5921C54.84 32.9115 56.0365 32.7391 56.9617 32.1334C56.7027 32.6994 56.2688 33.0826 55.6513 33.1672C55.0339 33.2505 54.2739 32.9727 53.7808 32.5921Z" fill="#F14568"/>
<path d="M61.7692 26.9764C62.0171 27.3987 63.0015 27.2809 63.9683 26.7136C64.9352 26.1456 65.5181 25.3434 65.2702 24.9211C65.023 24.4988 64.038 24.6166 63.0711 25.1846C62.1043 25.752 61.5213 26.5542 61.7692 26.9764Z" fill="#F36269"/>
<path d="M48.3896 27.1365C48.3317 27.849 49.6069 28.5328 51.2374 28.6655C52.8672 28.7976 54.2355 28.3272 54.2934 27.6154C54.3513 26.9036 53.0767 26.2191 51.4462 26.0871C49.8158 25.955 48.4475 26.4247 48.3896 27.1365Z" fill="#F36269"/>
<path d="M50.9576 29.9296C50.9576 29.9296 51.0409 30.0103 51.186 30.1502C51.333 30.2953 51.566 30.4827 51.8763 30.687C52.4905 31.0975 53.4704 31.5217 54.6213 31.6096C55.7723 31.6916 56.8035 31.4163 57.4717 31.1001C57.8081 30.9433 58.0664 30.7924 58.233 30.6707C58.3969 30.5536 58.4913 30.4859 58.4913 30.4859C58.4913 30.4859 58.3826 30.5263 58.1939 30.5959C58.0072 30.672 57.7268 30.7586 57.3819 30.847C56.6923 31.0266 55.7228 31.1489 54.6604 31.0735C53.5992 30.9928 52.6577 30.7286 52.0012 30.4495C51.674 30.3116 51.4092 30.1847 51.2354 30.0826C51.0591 29.9856 50.9576 29.9296 50.9576 29.9296Z" fill="#F14568"/>
<path d="M56.2871 26.5945L55.751 25.2464C55.751 25.2464 57.7426 25.9914 58.8916 25.5314V26.834H58.049L56.2871 26.5945Z" fill="#F36269"/>
<path d="M59.2005 27.119C58.2285 27.2764 57.1647 27.0409 56.287 26.5945C57.0521 26.4996 57.827 26.4852 58.5948 26.551C58.5186 24.2907 58.0827 21.9107 56.5882 20.2145C57.6097 20.9777 58.382 22.0369 58.7815 23.2477C59.181 24.4585 59.2578 25.845 59.2005 27.119Z" fill="#F14568"/>
<path d="M46.4955 32.5582C44.2567 32.769 42.4199 31.7391 41.3679 30.7924C41.131 30.579 40.9346 30.3688 40.7817 30.1795C39.9515 29.145 39.0783 25.21 40.5416 24.005C41.5676 23.1612 42.5592 23.953 43.0608 24.5041V24.506C43.2749 24.7396 43.3998 24.9302 43.3998 24.9302L46.4955 32.5582Z" fill="#F9AA7F"/>
<path d="M46.4954 32.5582C44.2566 32.769 42.4199 31.7391 41.3678 30.7924C41.2741 30.6935 41.1902 30.5979 41.1173 30.5061C40.2871 29.4723 39.414 25.5373 40.8779 24.3329C41.7081 23.6485 42.5162 24.0382 43.0608 24.5041V24.506C43.2748 24.7396 43.3997 24.9302 43.3997 24.9302L46.4954 32.5582Z" fill="#F68672"/>
<path d="M40.5789 27.2451C40.5529 27.577 40.6622 27.8977 40.8209 28.1931C41.4969 29.4469 43.0038 30.2309 44.441 30.9524C43.9446 30.374 43.6766 29.6694 43.631 28.9459C43.6154 28.6941 43.6258 28.4384 43.5848 28.1905C43.4202 27.1905 40.7331 25.2854 40.5789 27.2451Z" fill="#F36269"/>
<path d="M45.1464 31.2198L45.0671 31.1912C45.0157 31.1717 44.935 31.1476 44.8406 31.1047C44.65 31.0208 44.3826 30.8789 44.1132 30.6473C43.8452 30.4157 43.5823 30.0904 43.4125 29.6798C43.2525 29.2699 43.1841 28.7709 43.3292 28.2536C43.3429 28.1886 43.367 28.1255 43.3917 28.0623L43.4093 28.0155L43.4119 28.0096L43.4112 28.0116L43.4125 28.0103H43.4132L43.4079 28.0038L43.3806 27.9693L43.324 27.901L43.2102 27.7683C43.0553 27.5945 42.8933 27.4338 42.7306 27.2868C42.5673 27.1398 42.4014 27.0077 42.2401 26.888C42.0768 26.7702 41.9213 26.6596 41.7716 26.5841C41.6226 26.5073 41.4671 26.4677 41.3279 26.4735C41.1893 26.482 41.0663 26.5353 40.9876 26.5932C40.9076 26.6518 40.8692 26.7162 40.8562 26.7617L40.8451 26.8327L40.8367 26.7604C40.8373 26.7129 40.8607 26.6368 40.9369 26.5568C41.0123 26.4787 41.1379 26.3961 41.3168 26.3603C41.4957 26.3271 41.7 26.3538 41.8894 26.4208C42.0813 26.4885 42.2589 26.5841 42.447 26.6895C42.6344 26.7975 42.8269 26.9211 43.0163 27.0636C43.205 27.2061 43.3917 27.3668 43.5667 27.5458L43.6955 27.683L43.7586 27.7546L43.8432 27.8555L43.9018 27.927L43.8718 28.0135L43.8263 28.1378L43.7736 28.3031C43.6474 28.752 43.6786 29.1938 43.784 29.5764C43.8979 29.957 44.0892 30.281 44.2961 30.5269C44.5043 30.7742 44.7229 30.9459 44.8836 31.0572C44.9636 31.1131 45.0332 31.1489 45.0775 31.1776L45.1464 31.2198Z" fill="#D03B58"/>
<path d="M37.5066 21.7734L37.9145 22.1377L40.2906 24.2692C42.4937 23.562 44.8841 27.3759 44.8841 27.3759L45.0513 16.4942C47.7956 16.0986 56.395 11.8942 56.395 11.8942L63.4641 17.7512C63.4641 17.7512 64.0008 16.936 64.5981 15.7206C65.6892 13.487 66.9664 9.90723 65.4062 7.60856C63.0002 4.05743 53.6682 2.44711 53.6682 2.44711L50.2095 4.65795C50.2095 4.65795 41.8092 6.19084 39.6921 8.19152C37.5749 10.1922 37.5066 21.7734 37.5066 21.7734Z" fill="#121414"/>
<path d="M37.5066 21.7734L37.9145 22.1377C39.3114 21.6621 40.5964 20.8417 41.6218 19.7727C42.1365 20.8417 42.6531 21.9165 43.1677 22.9848C43.9003 20.1292 44.0142 17.1337 43.5334 14.2319C48.6102 14.6301 53.8074 11.8727 56.3228 7.43742C59.8251 9.29171 62.7438 12.226 64.5981 15.7206C65.0236 14.8585 65.4654 13.7941 65.7706 12.6841C66.2514 10.9124 66.3639 9.01975 65.4062 7.60854C63.0002 4.05741 53.6682 2.4471 53.6682 2.4471L50.2095 4.65793C50.2095 4.65793 41.8092 6.19082 39.6921 8.1915C38.5073 9.31253 37.9601 13.4369 37.7167 16.8488C37.5203 19.5326 37.5066 21.7734 37.5066 21.7734Z" fill="#353638"/>
<path d="M37.7167 16.8488L37.7232 16.8475C39.1513 16.6627 40.0544 15.2593 40.7551 14.0049C41.0394 14.891 41.3316 15.7818 41.6159 16.6679C42.6322 14.7251 43.1006 12.4987 42.9529 10.3041C48.0025 11.6457 53.7787 9.59623 56.8497 5.36975C60.7333 6.26046 64.0834 9.08875 65.7705 12.6841C66.2513 10.9125 66.3639 9.01979 65.4061 7.60857C63.0001 4.05744 53.6681 2.44713 53.6681 2.44713L50.2094 4.65796C50.2094 4.65796 41.8091 6.19085 39.692 8.19153C38.5072 9.31257 37.96 13.4369 37.7167 16.8488Z" fill="#4A4C4E"/>
<path d="M11.255 83.8213C11.255 83.8213 6.4299 118.934 8.26792 122.323C10.106 125.711 20.8387 128.009 25.8128 128.239C30.7868 128.469 42.0499 123.413 42.5079 121.115C42.966 118.817 39.7057 83.8213 39.7057 83.8213H11.255Z" fill="#F46D3C"/>
<path d="M48.1167 99.9002C47.6977 101.071 39.9923 97.2827 39.9923 97.2827L38.2525 98.9145L41.3241 100.799L43.9487 105.347C43.9487 105.347 43.3586 106.18 42.5746 107.157C42.4777 107.28 42.3762 107.403 42.274 107.528C41.7991 108.107 41.2747 108.703 40.7782 109.184L40.637 109.325C40.3839 109.56 40.1419 109.762 39.9226 109.912C39.6767 110.078 39.4574 110.179 39.2753 110.191L36.5094 107.175C36.5094 107.175 30.8763 107.511 30.1047 107.138C29.7982 106.989 29.0031 105.728 28.1554 104.263C27.7507 103.559 26.195 100.81 25.8131 100.112L27.8411 97.0094L32.4287 95.9463C32.9661 95.8012 33.6812 95.6223 34.4847 95.4512V95.4486C34.8796 95.3634 35.296 95.2814 35.7222 95.2046C37.2681 94.9274 38.9493 94.742 40.2714 94.8845C40.8322 94.9424 41.3273 95.0634 41.7184 95.2619C44.4198 96.6249 48.535 98.733 48.1167 99.9002Z" fill="#F68672"/>
<path d="M40.7779 109.184L40.6367 109.325C40.5385 109.185 40.4129 109.001 40.2593 108.78C39.9093 108.281 39.4252 107.613 38.8878 106.902C38.3452 106.194 37.813 105.589 37.3614 105.179C37.2469 105.077 37.1428 104.985 37.0504 104.902C36.9509 104.829 36.867 104.764 36.7947 104.712C36.6548 104.602 36.5729 104.539 36.5729 104.539C36.5729 104.539 36.6737 104.558 36.8579 104.602C36.9483 104.624 37.0621 104.652 37.1916 104.689C37.3152 104.737 37.4545 104.792 37.6119 104.859C38.2248 105.129 39.003 105.677 39.599 106.453C40.1871 107.232 40.5014 108.038 40.6588 108.627C40.7161 108.846 40.7532 109.032 40.7779 109.184Z" fill="#D03B58"/>
<path d="M42.5744 107.157C42.4775 107.28 42.376 107.403 42.2738 107.528L42.2107 107.442C41.8607 106.942 41.3773 106.274 40.8398 105.565C40.2966 104.855 39.7643 104.25 39.3135 103.84C39.199 103.738 39.0968 103.647 39.0051 103.567C38.9055 103.49 38.8183 103.427 38.7494 103.374C38.6062 103.264 38.5269 103.203 38.5269 103.203C38.5269 103.203 38.6251 103.222 38.8092 103.264C38.8997 103.287 39.0135 103.314 39.143 103.352C39.2666 103.398 39.4085 103.456 39.5633 103.521C40.1794 103.793 40.9576 104.341 41.5503 105.117C42.0982 105.839 42.4085 106.585 42.5744 107.157Z" fill="#D03B58"/>
<path d="M16.1726 88.8877L21.7901 75.4333H8.49971C5.83929 82.7464 2.69806 92.4629 3.74947 95.0257C5.49251 99.275 28.1552 104.263 28.1552 104.263L29.7577 96.5651L16.1726 88.8877Z" fill="#F68672"/>
<path d="M36.9568 41.7568C36.9568 41.7568 29.6763 43.5349 25.8434 46.6157C22.0106 49.6977 5.8158 76.7886 5.50415 78.7047L21.2305 83.8212L32.5957 69.6447L36.9568 41.7568Z" fill="#DCDDDA"/>
<path d="M2.95801 82.7893L4.8162 76.3526L24.0085 81.9585L20.9141 87.2962L2.95801 82.7893Z" fill="white"/>
<path d="M71.3335 69.4788C71.3029 68.8587 71.165 68.2608 71.1526 67.6388C71.139 66.9173 71.1279 66.1957 71.1019 65.4735C71.0557 64.182 70.8742 62.8996 70.7499 61.6133C70.355 57.5319 70.23 53.2853 68.0589 49.6671C68.0179 49.5995 67.9203 49.6587 67.9541 49.7283C68.8266 51.5188 69.2092 53.6002 69.4942 55.5612C69.798 57.6536 69.9665 59.8059 70.0082 61.9198C70.0329 63.1566 70.0401 64.3941 70.1155 65.629C70.1533 66.2471 70.1864 66.8659 70.2112 67.4846C70.2359 68.119 70.1305 68.6987 70.0804 69.3259C69.9874 70.4853 70.003 71.6408 70.0485 72.8016C70.0973 74.0364 70.2905 75.2277 70.0967 76.462C70.0088 77.0261 70.852 77.2831 70.9711 76.7034C71.204 75.5719 71.2736 74.3767 71.2626 73.2238C71.2509 71.9753 71.3934 70.7273 71.3335 69.4788Z" fill="#BCBEBC"/>
<path d="M60.2512 54.351C60.2512 55.1018 59.6423 55.7102 58.8914 55.7102C58.1406 55.7102 57.5316 55.1018 57.5316 54.351C57.5316 53.5995 58.1406 52.9912 58.8914 52.9912C59.6423 52.9912 60.2512 53.5995 60.2512 54.351Z" fill="#52546E"/>
<path d="M60.2512 59.789C60.2512 60.5398 59.6423 61.1488 58.8914 61.1488C58.1406 61.1488 57.5316 60.5398 57.5316 59.789C57.5316 59.0381 58.1406 58.4298 58.8914 58.4298C59.6423 58.4298 60.2512 59.0381 60.2512 59.789Z" fill="#52546E"/>
<path d="M60.2512 65.2269C60.2512 65.9784 59.6423 66.5867 58.8914 66.5867C58.1406 66.5867 57.5316 65.9784 57.5316 65.2269C57.5316 64.4767 58.1406 63.8678 58.8914 63.8678C59.6423 63.8678 60.2512 64.4767 60.2512 65.2269Z" fill="#52546E"/>
<path d="M97.3761 102.772C95.7762 100.805 95.5381 97.7004 95.5381 97.7004C95.9473 97.3296 96.4724 97.0043 97.0664 96.7278C97.313 96.6054 97.5739 96.4961 97.8452 96.3927C98.4457 96.165 99.0912 95.9678 99.7554 95.8052C100.045 95.7303 100.338 95.6614 100.633 95.5996C101.416 95.4363 102.198 95.3061 102.932 95.2085C103.247 95.1617 103.553 95.1252 103.845 95.0895C104.64 95.0016 105.334 94.947 105.854 94.9131C106.458 94.8735 106.824 94.863 106.824 94.863C107.702 97.016 107.201 100.661 107.201 100.661C106.488 101.191 105.657 101.595 104.789 101.897C101.383 103.091 97.3761 102.772 97.3761 102.772Z" fill="#F68672"/>
<path d="M104.104 98.7883C104.104 98.7883 103.96 98.4968 103.776 98.0524C103.591 97.6042 103.358 97.014 103.179 96.3504C103.07 95.9477 102.992 95.5592 102.933 95.2085C103.248 95.1617 103.553 95.1253 103.845 95.0895C104.002 95.3738 104.143 95.7024 104.242 96.0628C104.439 96.798 104.408 97.5014 104.321 97.9971C104.235 98.4923 104.104 98.7883 104.104 98.7883Z" fill="#D03B58"/>
<path d="M101.001 99.1487C101.001 99.1487 100.839 98.8813 100.636 98.4708C100.435 98.057 100.183 97.5046 99.9966 96.8748C99.8867 96.5013 99.8132 96.1357 99.7552 95.8051C100.045 95.7303 100.338 95.6614 100.632 95.5995C100.796 95.8767 100.949 96.2007 101.055 96.5644C101.256 97.2495 101.245 97.9151 101.18 98.3862C101.112 98.8605 101.001 99.1487 101.001 99.1487Z" fill="#D03B58"/>
<path d="M98.3651 100.322C98.3651 100.322 98.1913 100.046 97.9747 99.61C97.7606 99.1702 97.4971 98.5788 97.3078 97.9034C97.192 97.4903 97.1159 97.0882 97.0664 96.7278C97.313 96.6054 97.5739 96.4961 97.8452 96.3927C98.0456 96.7303 98.2375 97.1416 98.367 97.6061C98.5694 98.3277 98.5713 99.0186 98.518 99.515C98.4646 100.015 98.3651 100.322 98.3651 100.322Z" fill="#D03B58"/>
<path d="M104.79 101.897C105.259 101.27 105.662 100.606 105.872 99.8579C106.065 99.1735 106.085 98.4545 106.082 97.7466C106.079 96.9366 106.108 96.0673 105.964 95.2664C105.947 95.1617 105.903 95.042 105.855 94.9131C106.458 94.8734 106.824 94.863 106.824 94.863C107.702 97.016 107.201 100.661 107.201 100.661C106.488 101.191 105.657 101.595 104.79 101.897Z" fill="#F9AA7F"/>
<path d="M29.4081 83.8212C29.4081 83.8212 30.0834 64.6648 30.0138 62.1371C29.9448 59.6094 24.583 46.0516 24.583 46.0516C24.583 46.0516 26.1894 44.2136 27.3007 44.1368C27.3007 44.1368 33.0848 60.1455 32.9319 62.1371C32.7783 64.128 31.7061 83.8212 31.7061 83.8212H29.4081Z" fill="#F46D3C"/>
<path d="M78.9967 32.8165L88.7639 23.8411L91.9253 30.5139L78.9967 32.8165Z" fill="white"/>
<path d="M74.8042 31.8165L73.8237 23.5411L78.3755 24.128L74.8042 31.8165Z" fill="white"/>
<path d="M79.4214 38.6162L88.268 38.6305L87.873 42.8225L79.4214 38.6162Z" fill="white"/>
</svg>
