<svg width="197" height="35" viewBox="0 0 197 35" fill="none" xmlns="http://www.w3.org/2000/svg">
<path d="M187.713 13.352C189.566 15.2068 191.077 18.24 190.213 20.039C187.895 24.8608 170.604 33.3117 169.132 31.8502C167.666 30.39 176.161 13.1664 181.002 10.8574C182.811 10.0007 185.857 11.5193 187.719 13.3494L187.712 13.3676V13.352H187.713ZM196.876 11.3194C196.575 10.2097 195.806 9.09088 194.66 8.95719C192.561 8.71578 189.248 12.4136 189.483 13.291C189.719 14.1866 194.393 15.7246 196.132 14.4786C197.033 13.8374 197.15 12.4538 196.857 11.3454L196.876 11.3194ZM190.369 1.07223C191.931 1.49276 193.507 2.56226 193.695 4.16392C194.035 7.09595 188.829 11.7166 187.594 11.3856C186.358 11.0599 184.18 4.52734 185.939 2.08981C186.845 0.828219 188.809 0.654296 190.371 1.06704V1.07223H190.369Z" fill="white"/>
<path d="M24.7264 8.37522H33.3053C35.3986 8.37522 37.2583 8.78641 38.8843 9.60878C40.5104 10.4125 41.772 11.5619 42.6691 13.0571C43.5662 14.5337 44.0148 16.2438 44.0148 18.1876C44.0148 20.1314 43.5662 21.8509 42.6691 23.3461C41.772 24.8227 40.5104 25.9721 38.8843 26.7945C37.2583 27.5982 35.3986 28 33.3053 28H24.7264V8.37522ZM33.1371 24.9161C34.5762 24.9161 35.8378 24.6451 36.9218 24.1031C38.0246 23.5424 38.8656 22.7574 39.445 21.7481C40.0431 20.7201 40.3422 19.5333 40.3422 18.1876C40.3422 16.8419 40.0431 15.6644 39.445 14.6552C38.8656 13.6272 38.0246 12.8422 36.9218 12.3002C35.8378 11.7395 34.5762 11.4591 33.1371 11.4591H28.3711V24.9161H33.1371ZM62.1866 13.0291V28H58.8504V26.0656C58.271 26.7758 57.5514 27.3085 56.6916 27.6636C55.8506 28.0187 54.916 28.1962 53.8881 28.1962C52.4302 28.1962 51.1219 27.8785 49.9631 27.243C48.823 26.6076 47.9259 25.7104 47.2717 24.5516C46.6363 23.3928 46.3185 22.0472 46.3185 20.5145C46.3185 18.9819 46.6363 17.6456 47.2717 16.5055C47.9259 15.3467 48.823 14.4496 49.9631 13.8141C51.1219 13.1786 52.4302 12.8609 53.8881 12.8609C54.86 12.8609 55.7478 13.0291 56.5514 13.3655C57.3738 13.7019 58.084 14.1972 58.6821 14.8514V13.0291H62.1866ZM54.2806 25.1965C55.5702 25.1965 56.6356 24.7666 57.4766 23.9068C58.3177 23.0471 58.7382 21.9163 58.7382 20.5145C58.7382 19.1128 58.3177 17.982 57.4766 17.1223C56.6356 16.2625 55.5702 15.8326 54.2806 15.8326C52.991 15.8326 51.9256 16.2625 51.0845 17.1223C50.2622 17.982 49.851 19.1128 49.851 20.5145C49.851 21.9163 50.2622 23.0471 51.0845 23.9068C51.9256 24.7666 52.991 25.1965 54.2806 25.1965ZM84.5461 8.37522V28H80.9015V19.5894H70.7527V28H67.1081V8.37522H70.7527V16.4775H80.9015V8.37522H84.5461ZM96.1968 28.1962C94.6829 28.1962 93.3185 27.8692 92.1036 27.215C90.8888 26.5608 89.9355 25.6544 89.244 24.4956C88.5712 23.3181 88.2347 21.9911 88.2347 20.5145C88.2347 19.038 88.5712 17.7204 89.244 16.5616C89.9355 15.4028 90.8888 14.4963 92.1036 13.8421C93.3185 13.188 94.6829 12.8609 96.1968 12.8609C97.7294 12.8609 99.1031 13.188 100.318 13.8421C101.533 14.4963 102.477 15.4028 103.15 16.5616C103.841 17.7204 104.187 19.038 104.187 20.5145C104.187 21.9911 103.841 23.3181 103.15 24.4956C102.477 25.6544 101.533 26.5608 100.318 27.215C99.1031 27.8692 97.7294 28.1962 96.1968 28.1962ZM96.1968 25.1965C97.4864 25.1965 98.5518 24.7666 99.3928 23.9068C100.234 23.0471 100.654 21.9163 100.654 20.5145C100.654 19.1128 100.234 17.982 99.3928 17.1223C98.5518 16.2625 97.4864 15.8326 96.1968 15.8326C94.9072 15.8326 93.8418 16.2625 93.0008 17.1223C92.1784 17.982 91.7672 19.1128 91.7672 20.5145C91.7672 21.9163 92.1784 23.0471 93.0008 23.9068C93.8418 24.7666 94.9072 25.1965 96.1968 25.1965ZM110.874 15.2159C111.883 13.6459 113.659 12.8609 116.201 12.8609V16.1971C115.902 16.141 115.631 16.113 115.388 16.113C114.023 16.113 112.958 16.5148 112.192 17.3185C111.426 18.1035 111.042 19.2436 111.042 20.7388V28H107.538V13.0291H110.874V15.2159ZM127.584 27.187C127.173 27.5234 126.669 27.7757 126.07 27.9439C125.491 28.1121 124.874 28.1962 124.22 28.1962C122.575 28.1962 121.304 27.7664 120.407 26.9066C119.51 26.0469 119.062 24.7946 119.062 23.1499V9.72092H122.566V13.1412H126.575V15.9448H122.566V23.0658C122.566 23.7947 122.744 24.3554 123.099 24.7479C123.473 25.1217 123.987 25.3086 124.641 25.3086C125.426 25.3086 126.08 25.103 126.603 24.6918L127.584 27.187ZM144.623 13.0291V28H141.286V26.0656C140.707 26.7758 139.987 27.3085 139.128 27.6636C138.287 28.0187 137.352 28.1962 136.324 28.1962C134.866 28.1962 133.558 27.8785 132.399 27.243C131.259 26.6076 130.362 25.7104 129.708 24.5516C129.072 23.3928 128.755 22.0472 128.755 20.5145C128.755 18.9819 129.072 17.6456 129.708 16.5055C130.362 15.3467 131.259 14.4496 132.399 13.8141C133.558 13.1786 134.866 12.8609 136.324 12.8609C137.296 12.8609 138.184 13.0291 138.988 13.3655C139.81 13.7019 140.52 14.1972 141.118 14.8514V13.0291H144.623ZM136.717 25.1965C138.006 25.1965 139.072 24.7666 139.913 23.9068C140.754 23.0471 141.174 21.9163 141.174 20.5145C141.174 19.1128 140.754 17.982 139.913 17.1223C139.072 16.2625 138.006 15.8326 136.717 15.8326C135.427 15.8326 134.362 16.2625 133.521 17.1223C132.698 17.982 132.287 19.1128 132.287 20.5145C132.287 21.9163 132.698 23.0471 133.521 23.9068C134.362 24.7666 135.427 25.1965 136.717 25.1965Z" fill="white"/>
</svg>
